<?xml version="1.0" standalone="no"?><!-- Generator: Adobe Fireworks CS6, Export SVG Extension by Aaron Beall (http://fireworks.abeall.com) . Version: 0.6.1  --><!DOCTYPE svg PUBLIC "-//W3C//DTD SVG 1.1//EN" "http://www.w3.org/Graphics/SVG/1.1/DTD/svg11.dtd"><svg id="garyhepting-logo.fw-Page%201" viewBox="0 0 226 52" style="background-color:#ffffff00" version="1.1"	xmlns="http://www.w3.org/2000/svg" xmlns:xlink="http://www.w3.org/1999/xlink" xml:space="preserve"	x="0px" y="0px" width="226px" height="52px">	<g id="Layer%201">		<g>			<path d="M 24.2074 7.066 C 22.7782 8.771 22.0636 11.0499 22.0636 13.9029 C 22.0636 16.5701 22.7616 18.7309 24.1575 20.3853 C 25.5535 22.0396 27.3981 22.8668 29.6915 22.8668 C 31.5195 22.8668 32.9321 22.5123 33.9624 21.7864 C 34.1951 21.6176 34.5108 21.3306 34.9263 20.8917 C 34.9097 21.2293 34.8931 21.4488 34.8764 21.567 L 34.8266 22.0903 C 34.8266 22.6136 35.1756 22.8668 35.8736 22.8668 C 36.5882 22.8668 36.9538 22.5292 36.9538 21.8371 L 36.9538 21.0099 L 36.9538 19.8113 L 36.9538 17.7856 C 36.9538 16.1312 37.2861 15.304 37.9841 15.304 L 38.1669 15.304 L 38.3331 15.304 L 38.7652 15.304 C 38.9646 15.304 39.164 15.2027 39.3302 14.9833 C 39.4964 14.7807 39.5795 14.5106 39.5795 14.2067 C 39.5795 13.4977 39.2139 13.1432 38.5159 13.1432 C 38.25 13.1432 38.0007 13.1939 37.8013 13.2614 C 36.8208 13.6159 35.9068 13.7847 35.0426 13.7847 C 34.3613 13.7847 33.4639 13.6159 32.3504 13.2783 C 32.0513 13.1939 31.802 13.1432 31.586 13.1432 C 30.8548 13.1432 30.4892 13.5146 30.4892 14.2405 C 30.4892 14.9495 30.9545 15.304 31.9184 15.304 L 32.5997 15.304 L 33.2811 15.304 C 33.8461 15.304 34.2449 15.4222 34.4776 15.6248 C 34.7103 15.8273 34.8266 16.1987 34.8266 16.7052 C 34.8266 17.9881 34.4277 18.9841 33.6301 19.6763 C 32.8324 20.3684 31.7023 20.706 30.2399 20.706 C 28.3454 20.706 26.8497 20.0814 25.7861 18.8153 C 24.7225 17.5492 24.1908 15.7767 24.1908 13.5146 C 24.1908 11.3876 24.7059 9.7163 25.7529 8.5009 C 26.7832 7.2854 28.229 6.6608 30.0571 6.6608 C 31.5195 6.6608 32.6662 6.9815 33.5303 7.6062 C 34.3945 8.2476 34.8266 9.1086 34.8266 10.189 L 34.8266 10.898 C 34.8266 11.6745 35.159 12.0628 35.8569 12.0628 C 36.5882 12.0628 36.9538 11.6745 36.9538 10.898 C 36.987 10.7461 36.987 10.6617 36.9538 10.6617 L 36.9538 8.5684 L 36.9538 7.4036 L 36.9538 6.1544 L 36.9538 5.6142 C 36.9538 4.8714 36.5715 4.5 35.8403 4.5 C 35.159 4.5 34.8266 4.787 34.8266 5.3272 L 34.8266 5.8843 L 34.8266 6.2894 C 33.3808 5.1077 31.7688 4.5 29.9906 4.5 C 27.5643 4.5 25.6366 5.3609 24.2074 7.066 L 24.2074 7.066 Z" fill="#ffffff"/>			<path d="M 56.0983 20.3515 L 56.0983 18.8491 L 56.0983 18.7309 C 56.0983 17.8869 55.7327 17.4648 55.0014 17.4648 C 54.3035 17.4648 53.9711 17.7012 53.9711 18.1738 L 53.9711 19.2711 C 53.9711 20.2334 53.6221 20.706 52.9241 20.706 C 52.3591 20.706 52.0101 20.419 51.9104 19.8113 C 51.8605 19.6763 51.8439 19.1867 51.8439 18.3764 L 51.8439 13.2614 C 51.8439 10.3072 50.2818 8.8216 47.1575 8.8216 C 45.7948 8.8216 44.6481 9.193 43.7009 9.9189 C 42.737 10.6617 42.2717 11.5395 42.2717 12.5524 C 42.2717 13.025 42.3714 13.4302 42.604 13.7678 C 42.8201 14.1054 43.1026 14.2574 43.435 14.2574 C 43.7009 14.2574 43.9335 14.1561 44.1163 13.9535 C 44.2991 13.7509 44.3988 13.4808 44.3988 13.1432 C 44.3988 12.7718 44.4155 12.5017 44.4819 12.3329 C 44.4819 12.2316 44.4986 12.1641 44.4986 12.0966 C 44.4986 11.9278 44.6149 11.759 44.8808 11.5901 C 45.5289 11.185 46.2269 10.9824 46.9913 10.9824 C 47.8555 10.9824 48.5202 11.185 49.0022 11.5733 C 49.4675 11.9784 49.7168 12.5186 49.7168 13.1939 C 49.7168 13.9198 49.4841 14.4093 49.052 14.6794 C 48.6199 14.9495 47.6727 15.169 46.2435 15.3209 C 45.2298 15.4391 44.565 15.5404 44.2327 15.6079 C 43.9003 15.6754 43.5014 15.8442 43.0361 16.0974 C 41.8064 16.7558 41.2081 17.7856 41.2081 19.1698 C 41.2081 20.3009 41.6402 21.1956 42.5376 21.8708 C 43.435 22.5461 44.6149 22.8668 46.1105 22.8668 C 48.1048 22.8668 49.5672 22.3435 50.5145 21.2969 C 50.8468 22.3435 51.7775 22.8668 53.2897 22.8668 C 55.1178 22.8668 56.065 22.0396 56.0983 20.3515 L 56.0983 20.3515 ZM 48.6864 19.8788 C 48.0217 20.4359 47.1243 20.706 45.9776 20.706 C 45.1633 20.706 44.5152 20.5372 44.0499 20.1996 C 43.5679 19.862 43.3353 19.4062 43.3353 18.8153 C 43.3353 17.7012 44.3158 17.0597 46.2767 16.8909 C 47.3403 16.8065 48.0882 16.7052 48.5202 16.5701 C 48.9357 16.4519 49.3345 16.2325 49.7168 15.9286 L 49.7168 17.5661 C 49.6835 18.5452 49.3512 19.3218 48.6864 19.8788 L 48.6864 19.8788 Z" fill="#ffffff"/>			<path d="M 59.7211 8.8216 C 59.5383 8.8216 59.3887 8.9398 59.2558 9.1592 C 58.9566 9.3956 58.7406 9.4969 58.6243 9.4969 C 58.4581 9.4969 58.2088 9.3956 57.8764 9.1592 C 57.5441 8.9398 57.3114 8.8216 57.1452 8.8216 C 56.4473 8.8216 56.0983 9.2099 56.0983 9.9527 C 56.0983 10.6448 56.414 10.9824 57.0621 10.9824 C 57.2117 10.9824 57.4277 10.9993 57.6936 10.9993 C 57.9595 11.0162 58.159 11.0162 58.3251 11.0162 C 58.8569 11.0162 59.1395 11.5226 59.2059 12.5017 L 59.289 18.2582 L 59.289 19.5412 C 59.2392 20.3178 58.9733 20.706 58.4913 20.706 L 58.0925 20.706 L 57.6438 20.706 L 57.2117 20.706 C 56.4639 20.706 56.0983 21.0437 56.0983 21.7189 C 56.0983 22.4954 56.4805 22.8668 57.2782 22.8668 L 58.8902 22.8668 C 59.3223 22.8162 59.9371 22.7824 60.7016 22.7824 C 60.9841 22.7824 61.4162 22.7993 61.9978 22.8331 C 62.5795 22.8668 63.0116 22.8668 63.3107 22.8668 L 63.427 22.8668 C 64.2081 22.8668 64.6069 22.4954 64.6069 21.7358 C 64.6069 21.0605 64.2912 20.706 63.6763 20.706 L 63.1279 20.706 L 62.3468 20.706 C 61.8316 20.706 61.5325 20.2502 61.4494 19.3218 C 61.4162 19.1867 61.4162 18.579 61.4162 17.4817 L 61.4162 15.8611 C 61.4162 14.46 61.5491 13.3964 61.815 12.6874 C 62.2471 11.5564 63.1445 10.9824 64.474 10.9824 C 65.1055 10.9824 65.6539 11.1343 66.086 11.4382 C 66.5181 11.7421 66.7341 12.1135 66.7341 12.5524 C 66.7341 12.7212 66.6842 12.89 66.6178 13.0588 C 66.5014 13.1263 66.4184 13.1432 66.3851 13.1432 C 66.1857 13.1432 66.0195 13.2445 65.8866 13.4471 C 65.737 13.6497 65.6705 13.886 65.6705 14.1392 C 65.6705 14.4768 65.7868 14.7469 66.0527 14.9664 C 66.302 15.2027 66.6012 15.304 66.9668 15.304 C 67.5318 15.304 67.9805 15.0677 68.3295 14.5612 C 68.6785 14.0717 68.8613 13.4302 68.8613 12.6368 C 68.8613 11.5226 68.4458 10.5941 67.6149 9.8851 C 66.784 9.1761 65.6871 8.8216 64.341 8.8216 C 62.6792 8.8216 61.3497 9.5137 60.3526 10.8811 L 60.3526 9.8682 C 60.3526 9.1761 60.1366 8.8216 59.7211 8.8216 L 59.7211 8.8216 Z" fill="#ffffff"/>			<path d="M 75.7247 11.4044 C 75.7247 11.1681 75.8078 11.0331 75.974 11.0331 C 76.0405 11.0331 76.1568 11.0331 76.323 11.0162 C 76.4892 10.9993 76.6055 10.9824 76.672 10.9824 C 77.1373 10.9824 77.3699 10.6279 77.3699 9.902 C 77.3699 9.193 77.0043 8.8216 76.2897 8.8216 C 76.1069 8.8216 75.7579 8.9398 75.2262 9.1424 C 74.5282 9.4462 73.8634 9.5813 73.2486 9.5813 C 73.1488 9.5813 73.0491 9.5813 72.9328 9.5475 L 72.7334 9.5475 L 71.703 8.9398 C 71.5701 8.8723 71.3707 8.8216 71.1048 8.8216 C 70.3071 8.8216 69.9249 9.193 69.9249 9.9358 C 69.9249 10.6448 70.2572 10.9824 70.922 10.9824 C 71.0217 10.9824 71.2045 10.9993 71.5036 10.9993 C 71.8027 11.0162 72.0022 11.0162 72.1185 11.0162 C 72.534 11.0162 72.8996 11.4213 73.2319 12.1979 L 73.5809 13.0419 L 76.7218 20.3178 C 77.2204 21.5163 77.4863 22.3266 77.4863 22.7487 C 77.4863 23.5927 77.104 24.3693 76.3562 25.0783 C 75.5918 25.7535 74.7442 26.108 73.8136 26.108 C 73.0658 26.108 72.5672 25.9561 72.3013 25.6691 C 72.1351 25.551 72.052 25.2809 72.052 24.8757 C 72.052 24.6056 71.9523 24.3693 71.7695 24.2173 C 71.5867 24.0316 71.3707 23.9472 71.1048 23.9472 C 70.7392 23.9472 70.4566 24.0992 70.2406 24.4368 C 70.0246 24.7407 69.9249 25.1627 69.9249 25.6691 C 69.9249 26.3781 70.2905 27.0027 71.0217 27.5092 C 71.7529 28.0156 72.6669 28.2688 73.7471 28.2688 C 75.5585 28.2688 77.0708 27.4923 78.2673 25.9392 C 78.9653 25.0108 79.7298 23.5421 80.5275 21.5163 L 84.1503 12.3836 C 84.4993 11.472 84.8483 11.0162 85.1806 11.0162 C 85.2637 11.0162 85.4299 11.0162 85.6626 10.9824 L 86.0614 10.9824 C 86.6431 10.9824 86.9422 10.6279 86.9422 9.9189 C 86.9422 9.193 86.5434 8.8216 85.7623 8.8216 C 85.4465 8.8216 84.9812 8.9567 84.3829 9.2099 C 83.7847 9.48 83.3194 9.5981 83.0202 9.5981 C 82.7211 9.5981 82.4552 9.5475 82.2059 9.4293 L 81.2254 8.9904 C 80.9595 8.8891 80.7767 8.8216 80.677 8.8216 C 79.8793 8.8216 79.4971 9.193 79.4971 9.9358 C 79.4971 10.6448 79.8129 10.9824 80.4444 10.9824 C 80.5441 10.9824 80.7435 10.9993 81.0592 10.9993 C 81.1922 11.0331 81.375 11.0331 81.6077 11.0331 C 82.0397 11.0331 82.2724 11.185 82.2724 11.4888 C 82.2724 11.6408 82.2225 11.8434 82.1395 12.0797 L 78.8988 21.0774 L 75.8244 11.9446 C 75.7579 11.7421 75.7247 11.5564 75.7247 11.4044 L 75.7247 11.4044 Z" fill="#ffffff"/>			<path d="M 101.4003 8.3321 C 101.4169 7.0828 101.7825 6.4413 102.4971 6.4413 C 102.5636 6.4413 102.7298 6.492 102.9624 6.5595 C 103.1951 6.627 103.3945 6.6608 103.5607 6.6608 C 103.7435 6.6608 103.8931 6.5764 104.026 6.3738 C 104.159 6.1712 104.2254 5.9349 104.2254 5.631 C 104.2254 4.8883 103.8598 4.5 103.1452 4.5 C 102.8129 4.5 102.2977 4.6013 101.6163 4.787 C 100.9184 4.9896 100.4032 5.074 100.0708 5.074 C 99.1568 5.074 98.3923 4.9727 97.7775 4.7363 C 97.3121 4.5844 96.9964 4.5 96.8468 4.5 C 96.0824 4.5 95.7168 4.8714 95.7168 5.6142 C 95.7168 5.8843 95.7832 6.1375 95.9494 6.3401 C 96.099 6.5595 96.2818 6.6608 96.4978 6.6608 C 96.664 6.6608 96.8801 6.627 97.1293 6.5426 C 97.362 6.4751 97.5448 6.4245 97.6611 6.4245 C 98.4921 6.4245 98.9075 7.0997 98.9075 8.4502 L 98.9075 19.2711 C 98.9075 20.6216 98.4921 21.2969 97.6611 21.2969 C 97.4949 21.2969 97.3288 21.1956 97.146 20.993 C 96.8468 20.8073 96.6308 20.706 96.4978 20.706 C 96.2818 20.706 96.099 20.8242 95.9494 21.0268 C 95.7832 21.2293 95.7168 21.4657 95.7168 21.7358 C 95.7168 22.4954 96.0824 22.8668 96.8468 22.8668 C 96.8634 22.8668 96.9798 22.8668 97.1792 22.8331 L 97.7775 22.7655 C 98.5585 22.6811 99.2897 22.6305 99.9877 22.6305 C 100.586 22.6305 101.284 22.6811 102.0816 22.7655 C 102.6633 22.8331 103.0123 22.8668 103.1452 22.8668 C 103.8598 22.8668 104.2254 22.4954 104.2254 21.7189 C 104.2254 21.0437 103.9595 20.706 103.461 20.706 C 103.328 20.706 103.1286 20.8073 102.8627 21.0099 C 102.5968 21.2125 102.3974 21.2969 102.2645 21.2969 C 101.5665 21.2969 101.1676 20.8073 101.0347 19.7944 C 101.2673 19.6763 101.3837 18.8491 101.3837 17.3298 L 101.3837 14.2236 L 109.5434 14.2236 L 109.5434 17.3129 C 109.5434 18.8322 109.5267 19.6594 109.5267 19.7776 C 109.3938 20.7904 108.9783 21.28 108.297 21.28 C 108.164 21.28 107.9812 21.1956 107.7153 20.993 C 107.4494 20.8073 107.2666 20.706 107.1337 20.706 C 106.6019 20.706 106.3526 21.0605 106.3526 21.7358 C 106.3526 22.4954 106.7016 22.8668 107.4328 22.8668 C 107.4993 22.8668 107.8981 22.8331 108.6293 22.7487 C 109.2442 22.6811 110.0087 22.6474 110.9227 22.6474 C 111.5874 22.6474 112.2189 22.698 112.8006 22.7655 C 113.2991 22.8331 113.6149 22.8668 113.7811 22.8668 C 114.4957 22.8668 114.8613 22.4954 114.8613 21.7189 C 114.8613 21.0437 114.5954 20.706 114.0968 20.706 C 113.9639 20.706 113.7645 20.8073 113.4986 21.0099 C 113.2327 21.2125 113.0332 21.2969 112.9003 21.2969 C 112.0694 21.2969 111.6705 20.6216 111.6705 19.2711 L 111.6705 8.5009 C 111.6705 7.1504 112.086 6.4751 112.9169 6.4751 C 113.0499 6.4751 113.2327 6.5089 113.4986 6.5764 C 113.7645 6.6439 113.9639 6.6608 114.0968 6.6608 C 114.5954 6.6608 114.8613 6.3232 114.8613 5.631 C 114.8613 4.8883 114.4957 4.5 113.7811 4.5 C 113.6149 4.5 113.2991 4.5844 112.8338 4.7195 C 112.0029 4.9727 111.1886 5.0908 110.3577 5.0908 C 109.8425 5.0908 109.2775 5.0064 108.6792 4.8039 C 108.0643 4.6013 107.6488 4.5 107.4162 4.5 C 106.7016 4.5 106.3526 4.8883 106.3526 5.631 C 106.3526 6.3232 106.6019 6.6608 107.1337 6.6608 C 107.2999 6.6608 107.5159 6.6439 107.7652 6.5764 C 108.0145 6.5089 108.1973 6.4751 108.297 6.4751 C 109.1279 6.4751 109.5434 7.1166 109.5434 8.3658 L 109.5434 12.0628 L 101.3837 12.0628 L 101.4003 8.3321 L 101.4003 8.3321 Z" fill="#ffffff"/>			<path d="M 127.1091 10.5435 C 126.0621 9.3956 124.7327 8.8216 123.1207 8.8216 C 121.2926 8.8216 119.8136 9.4969 118.6835 10.8305 C 117.5535 12.1641 116.9884 13.9029 116.9884 16.0299 C 116.9884 18.1232 117.5368 19.7776 118.6337 21.0099 C 119.7305 22.2591 121.2095 22.8668 123.0708 22.8668 C 124.5665 22.8668 125.896 22.4617 127.0593 21.6176 C 128.2225 20.7904 128.8208 19.8451 128.8208 18.7647 C 128.8208 18.1401 128.4884 17.8193 127.8403 17.8193 C 127.375 17.8193 127.0759 17.9881 126.9595 18.3258 L 126.7103 18.9335 C 126.5108 19.4568 126.0954 19.8788 125.4473 20.2165 C 124.7825 20.5541 124.0679 20.706 123.3035 20.706 C 122.1069 20.706 121.1098 20.3346 120.3121 19.575 C 119.5145 18.8153 119.1156 17.87 119.1156 16.722 C 119.1156 16.6039 119.1488 16.5195 119.2153 16.4688 C 119.2818 16.4182 119.4147 16.3844 119.6474 16.3844 L 127.8071 16.3844 C 128.2225 16.3844 128.4718 16.3169 128.5549 16.165 C 128.638 16.013 128.6879 15.591 128.6879 14.882 C 128.6879 13.1263 128.1561 11.6914 127.1091 10.5435 L 127.1091 10.5435 ZM 120.3288 11.894 C 121.1264 11.2863 122.0238 10.9824 123.021 10.9824 C 123.9682 10.9824 124.7991 11.2863 125.4971 11.8602 C 126.1951 12.4342 126.5607 13.1263 126.5607 13.9029 C 126.5607 14.1223 126.3779 14.2236 126.0123 14.2236 L 119.6973 14.2236 C 119.2984 14.2236 119.1156 14.1223 119.1156 13.9029 C 119.1156 13.1601 119.5145 12.5017 120.3288 11.894 L 120.3288 11.894 Z" fill="#ffffff"/>			<path d="M 135.4017 9.3956 C 135.2356 9.3956 135.0029 9.48 134.6705 9.6488 C 134.3382 9.8176 134.0723 9.902 133.9061 9.902 C 133.6568 9.902 133.2912 9.8007 132.8093 9.5644 C 132.5434 9.4631 132.3107 9.3956 132.1113 9.3956 C 131.2471 9.3956 130.815 9.6826 130.815 10.2565 C 130.815 10.8642 131.1806 11.1512 131.9118 11.1512 C 132.078 11.1512 132.2941 11.3032 132.5932 11.607 C 132.8757 11.9109 133.0918 12.0628 133.2247 12.0628 C 133.7233 12.0628 133.9725 12.4511 134.0058 13.2107 L 134.0058 22.8668 C 133.9725 24.3524 133.9227 25.2471 133.8396 25.5847 C 133.7399 25.9055 133.5072 26.0743 133.1416 26.0743 C 132.9754 26.0743 132.7262 25.8717 132.3938 25.4834 C 132.1279 25.1796 131.9451 25.0276 131.8288 25.0276 C 131.1474 25.0276 130.815 25.3653 130.815 26.0574 C 130.815 26.3613 130.9314 26.6145 131.164 26.8508 C 131.3967 27.0703 131.6958 27.1884 132.0282 27.1884 C 132.2775 27.1884 132.8093 27.256 133.6069 27.4079 C 133.9061 27.4754 134.3049 27.5092 134.7868 27.5092 C 135.651 27.5092 136.3157 27.4585 136.7478 27.3573 C 137.3295 27.2391 137.7782 27.1884 138.0773 27.1884 C 138.9082 27.1884 139.3237 26.8171 139.3237 26.108 C 139.3237 25.3821 138.9913 25.0276 138.3432 25.0276 C 138.2103 25.0276 137.9942 25.1964 137.7117 25.551 C 137.4126 25.8886 137.2132 26.0743 137.0802 26.0743 C 136.6149 26.0743 136.3157 25.7873 136.1994 25.2471 C 136.1496 25.0445 136.1329 24.5887 136.1329 23.9135 L 136.1329 21.6851 C 137.0636 22.4786 138.2767 22.8668 139.7724 22.8668 C 141.5672 22.8668 143.013 22.2085 144.0932 20.8917 C 145.1568 19.575 145.7052 17.7856 145.7052 15.5572 C 145.7052 13.4977 145.19 11.8602 144.1763 10.6448 C 143.1626 9.4293 141.7999 8.8216 140.0882 8.8216 C 138.4097 8.8216 137.0968 9.5644 136.1329 11.0162 L 136.1329 10.1552 C 136.1329 9.6488 135.8837 9.3956 135.4017 9.3956 L 135.4017 9.3956 ZM 137.3627 11.6914 C 138.0441 11.2187 138.8251 10.9824 139.7059 10.9824 C 142.2818 10.9824 143.578 12.603 143.578 15.8273 C 143.578 17.3973 143.2124 18.5959 142.4978 19.4399 C 141.7666 20.284 140.7529 20.706 139.4566 20.706 C 138.5759 20.706 137.8447 20.5203 137.2464 20.1321 C 136.6481 19.7438 136.2659 19.3049 136.0665 18.8153 C 135.8671 18.3258 135.7673 17.5323 135.7673 16.4519 C 135.6012 16.3844 135.6012 16.2663 135.7673 16.1143 C 135.784 15.9455 135.8006 15.8105 135.8006 15.7429 C 135.8006 14.8482 135.9003 14.0886 136.0665 13.4471 C 136.2493 12.7381 136.6814 12.1641 137.3627 11.6914 L 137.3627 11.6914 Z" fill="#ffffff"/>			<path d="M 154.1474 20.706 C 152.7681 20.706 152.0867 19.8957 152.0867 18.2582 L 152.0867 12.5524 C 152.0867 12.2316 152.203 12.0628 152.4523 12.0628 L 155.2775 12.0628 C 155.9754 12.0628 156.341 11.6914 156.341 10.9486 C 156.341 10.2565 156.0087 9.902 155.3606 9.902 L 152.552 9.902 C 152.2363 9.902 152.0867 9.767 152.0867 9.4969 L 152.0867 6.6102 C 152.0867 5.9349 151.7377 5.5804 151.073 5.5804 C 150.3251 5.5804 149.9595 5.9349 149.9595 6.6102 L 149.9595 9.3956 C 149.9595 9.7332 149.8266 9.902 149.5607 9.902 L 148.6301 9.902 C 148.4306 9.902 148.2478 10.0202 148.0816 10.2396 C 147.9155 10.4591 147.8324 10.7123 147.8324 10.9824 C 147.8324 11.2863 147.9155 11.5564 148.0816 11.759 C 148.2478 11.9615 148.4639 12.0628 148.7298 12.0628 L 149.4942 12.0628 C 149.7934 12.0628 149.9595 12.2485 149.9595 12.5861 L 149.9595 18.4946 C 149.9595 19.9633 150.1922 20.993 150.6908 21.6007 C 151.3389 22.4448 152.4523 22.8668 154.0144 22.8668 C 155.6929 22.8668 156.9061 22.3773 157.6539 21.3813 C 158.1857 20.6554 158.4682 19.3555 158.4682 17.4817 C 158.4682 16.7052 158.1192 16.3 157.4212 16.3 C 156.7233 16.3 156.3577 16.6208 156.341 17.2454 L 156.341 18.7309 C 156.2746 20.0477 155.5434 20.706 154.1474 20.706 L 154.1474 20.706 Z" fill="#ffffff"/>			<path d="M 165.3981 13.1263 C 165.2984 12.2147 165.2153 11.6745 165.1322 11.5226 C 165.1322 11.4551 165.0824 11.3538 164.9827 11.2187 C 164.8829 11.0837 164.8497 10.9824 164.8497 10.9149 C 164.8497 10.2396 164.5672 9.902 164.0354 9.902 C 163.8858 9.902 163.6532 9.8514 163.354 9.7163 C 163.0383 9.5981 162.8056 9.5306 162.6727 9.5306 C 162.4899 9.5306 162.1077 9.6319 161.526 9.8176 C 161.3598 9.8851 161.1106 9.902 160.7616 9.902 C 159.9306 9.902 159.5318 10.2734 159.5318 11.0162 C 159.5318 11.7252 159.9639 12.0628 160.8447 12.0628 C 161.0108 12.0628 161.2601 11.894 161.6091 11.5226 C 161.9581 11.1681 162.2406 10.9824 162.44 10.9824 C 163.0383 10.9824 163.3873 11.5564 163.5202 12.6874 C 163.2211 12.7549 163.0882 13.5484 163.0882 15.0339 L 163.0882 17.2454 C 163.0882 18.7478 163.2211 19.5412 163.5202 19.6087 C 163.3873 20.7567 163.0383 21.3306 162.4733 21.3306 C 162.2738 21.3306 161.9747 21.2293 161.6091 21.0268 C 161.2435 20.8242 160.961 20.706 160.7616 20.706 C 159.9306 20.706 159.5318 21.0605 159.5318 21.7695 C 159.5318 22.5123 159.9306 22.8668 160.7449 22.8668 C 160.9942 22.8668 161.5094 22.85 162.3071 22.7993 C 162.9386 22.7655 163.5368 22.7318 164.0686 22.7318 C 164.3844 22.7318 164.8663 22.7655 165.5311 22.7993 C 166.1792 22.85 166.6611 22.8668 166.9935 22.8668 C 167.3757 22.8668 167.6915 22.7655 167.9408 22.5461 C 168.19 22.3435 168.323 22.0734 168.323 21.7695 C 168.323 21.0605 167.974 20.706 167.3092 20.706 C 167.1264 20.706 166.9935 20.7736 166.927 20.8917 C 166.5614 21.1956 166.3454 21.3475 166.2623 21.3475 C 165.8634 21.3475 165.6308 20.9592 165.5477 20.1827 C 165.5144 20.0308 165.5144 19.5243 165.5144 18.6634 L 165.5144 15.304 C 165.5144 14.5612 165.4646 13.8353 165.3981 13.1263 L 165.3981 13.1263 ZM 164.534 6.3401 C 164.7334 6.1375 164.8497 5.8674 164.8497 5.5635 C 164.8497 5.2765 164.7334 5.0233 164.534 4.8207 C 164.3179 4.6182 164.0686 4.5 163.7861 4.5 C 163.487 4.5 163.2377 4.6182 163.0383 4.8207 C 162.8223 5.0233 162.7225 5.2765 162.7225 5.5635 C 162.7225 5.8674 162.8223 6.1375 163.0383 6.3401 C 163.2377 6.5595 163.487 6.6608 163.7861 6.6608 C 164.0686 6.6608 164.3179 6.5595 164.534 6.3401 L 164.534 6.3401 Z" fill="#ffffff"/>			<path d="M 171.5968 8.8216 C 171.5636 8.8216 171.3475 8.9398 170.9487 9.1592 C 170.7493 9.3956 170.5166 9.4969 170.2673 9.4969 L 169.3699 8.9567 C 169.3035 8.8723 169.2204 8.8216 169.1207 8.8216 C 168.3895 8.8216 168.0405 9.193 168.0405 9.9189 C 168.0405 10.6279 168.3895 10.9824 169.104 10.9824 L 169.7023 10.9824 L 170.3172 10.9824 C 170.6163 10.9824 170.8324 11.1006 170.9653 11.32 C 171.0983 11.5564 171.1814 11.9615 171.2312 12.5693 L 171.2312 13.5146 L 171.2312 16.7896 L 171.2312 19.7776 C 171.198 20.8242 170.8988 21.3475 170.3172 21.3475 C 170.0513 21.3475 169.802 21.2462 169.5361 21.0268 C 169.2702 20.8242 169.0874 20.706 168.9877 20.706 C 168.3562 20.706 168.0405 21.0605 168.0405 21.7527 C 168.0405 22.4954 168.4393 22.8668 169.2702 22.8668 C 169.3866 22.8668 169.8851 22.85 170.7493 22.7993 C 171.4306 22.7655 171.979 22.7318 172.3945 22.7318 C 172.9263 22.7318 173.4082 22.7487 173.8403 22.7824 C 174.7045 22.85 175.203 22.8668 175.3692 22.8668 C 176.1503 22.8668 176.5491 22.5123 176.5491 21.8033 C 176.5491 21.0774 176.2334 20.706 175.6019 20.706 C 175.4025 20.706 175.1698 20.8242 174.8873 21.0437 C 174.5882 21.28 174.3721 21.3813 174.2225 21.3813 C 173.8902 21.3813 173.6575 21.2462 173.5412 20.9761 C 173.4082 20.706 173.3584 20.1827 173.3584 19.4062 L 173.3584 15.9286 C 173.3584 14.308 173.5578 13.1432 173.9566 12.468 C 174.5217 11.4888 175.4689 10.9824 176.7984 10.9824 C 177.4798 10.9824 178.0947 11.185 178.6597 11.5733 C 179.1416 11.9446 179.4574 12.468 179.6236 13.1263 C 179.69 13.464 179.7399 14.1054 179.7399 15.017 L 179.7399 16.9921 L 179.7399 18.579 L 179.7399 19.9126 C 179.69 20.8748 179.4241 21.3475 178.9256 21.3475 C 178.8259 21.3475 178.5766 21.2125 178.1777 20.9255 C 177.9617 20.7904 177.7789 20.706 177.6127 20.706 C 176.8981 20.706 176.5491 21.0437 176.5491 21.7189 C 176.5491 22.4954 176.948 22.8668 177.7457 22.8668 C 177.8121 22.8668 178.3439 22.85 179.341 22.7824 C 179.6734 22.7824 180.1055 22.7655 180.6373 22.7655 C 181.2023 22.7655 181.8006 22.7824 182.4321 22.8162 C 183.0636 22.85 183.5289 22.8668 183.828 22.8668 C 184.1604 22.8668 184.4595 22.7655 184.6922 22.5461 C 184.9249 22.3266 185.0578 22.0565 185.0578 21.7189 C 185.0578 21.4488 184.9581 21.2125 184.7587 21.0099 C 184.5592 20.8073 184.3432 20.706 184.0773 20.706 C 183.9444 20.706 183.7449 20.8242 183.4458 21.0268 C 183.1467 21.2293 182.8974 21.3306 182.7312 21.3306 C 182.2659 21.3306 182 21.0268 181.9003 20.4022 C 181.8671 20.2671 181.8671 19.7944 181.8671 19.0179 L 181.8671 13.8522 C 181.8671 12.8562 181.7341 12.0459 181.4682 11.4382 C 181.1525 10.6954 180.5376 10.0877 179.6402 9.5813 C 178.7428 9.0748 177.7789 8.8216 176.7818 8.8216 C 174.9039 8.8216 173.4082 9.5306 172.2948 10.9486 L 172.2948 9.9189 C 172.2948 9.193 172.0621 8.8216 171.5968 8.8216 L 171.5968 8.8216 Z" fill="#ffffff"/>			<path d="M 189.5614 10.0877 C 188.6806 10.9318 188.2486 11.9784 188.2486 13.2276 C 188.2486 14.1054 188.3483 14.882 188.5477 15.5235 C 186.9191 16.013 186.1214 16.9077 186.1214 18.1907 C 186.1214 19.3893 186.9191 20.284 188.5477 20.8748 C 186.9191 21.5163 186.1214 22.5799 186.1214 24.0823 C 186.1214 25.3821 186.6698 26.4119 187.7999 27.1547 C 188.9299 27.8975 190.4754 28.2688 192.453 28.2688 C 194.414 28.2688 195.9762 27.813 197.1395 26.9352 C 198.3027 26.0405 198.8844 24.8251 198.8844 23.3057 C 198.8844 22.3773 198.6019 21.5332 198.0535 20.7736 C 197.5051 20.0308 196.7572 19.4737 195.8266 19.1023 C 194.8129 18.7309 193.5 18.5452 191.8714 18.5452 L 191.5556 18.5452 L 191.1069 18.5452 L 190.9408 18.5452 C 189.146 18.5452 188.2486 18.2414 188.2486 17.5999 C 188.2486 17.3973 188.3316 17.2285 188.5311 17.0766 C 188.7305 16.9246 188.9465 16.8402 189.2124 16.8402 C 189.3952 16.8402 189.6279 16.9584 189.927 17.1947 C 190.974 18.1063 191.9877 18.5452 192.9682 18.5452 C 194.3475 18.5452 195.4942 18.1401 196.4249 17.3129 C 197.3555 16.5026 197.8208 15.4728 197.8208 14.2405 C 197.8208 12.7212 197.1561 11.4888 195.8266 10.5773 C 195.8432 9.4125 196.3251 8.8216 197.2558 8.8216 C 197.6879 8.8216 198.0535 8.9904 198.3526 9.2943 C 197.987 9.5813 197.8208 9.8514 197.8208 10.0877 C 197.8208 10.3409 197.9039 10.5604 198.0867 10.7292 C 198.2695 10.898 198.4855 10.9824 198.7514 10.9824 C 199.0672 10.9824 199.3497 10.8136 199.5824 10.476 C 199.815 10.1383 199.948 9.7163 199.948 9.2268 C 199.948 8.484 199.6821 7.8763 199.1669 7.3867 C 198.6351 6.914 197.987 6.6608 197.2225 6.6608 C 195.3945 6.6608 194.4306 7.3867 194.3642 8.8216 L 192.8851 8.8216 C 191.5556 8.8216 190.4422 9.2436 189.5614 10.0877 L 189.5614 10.0877 ZM 194.9126 11.759 C 195.4277 12.2823 195.6936 12.9406 195.6936 13.7172 C 195.6936 14.4937 195.4277 15.1352 194.9292 15.6416 C 194.4306 16.1481 193.7659 16.3844 192.9682 16.3844 C 192.2038 16.3844 191.5723 16.1481 191.0903 15.6416 C 190.6084 15.1352 190.3757 14.4768 190.3757 13.6665 C 189.8938 13.5652 189.8938 13.4977 190.3757 13.4977 C 190.409 12.7887 190.6915 12.181 191.19 11.7083 C 191.6886 11.2356 192.2868 10.9824 193.0014 10.9824 C 193.7659 10.9824 194.3974 11.2525 194.9126 11.759 L 194.9126 11.759 ZM 195.6438 21.4319 C 196.375 21.9046 196.7572 22.5799 196.7572 23.4239 C 196.7572 24.2342 196.3584 24.8757 195.5939 25.3821 C 194.8129 25.8548 193.7493 26.108 192.4198 26.108 C 191.1402 26.108 190.1264 25.8548 189.3786 25.399 C 188.6142 24.9095 188.2486 24.2511 188.2486 23.4239 C 188.2486 22.5967 188.6308 21.9384 189.3952 21.4488 C 190.1597 20.9592 191.2233 20.706 192.5694 20.706 C 193.8822 20.706 194.9126 20.9592 195.6438 21.4319 L 195.6438 21.4319 Z" fill="#ffffff"/>			<path d="M 23.1272 41.8954 C 23.1105 42.4019 23.0441 42.7395 22.9277 42.9421 C 22.8114 43.1446 22.612 43.229 22.3129 43.229 C 22.1965 43.229 22.0802 43.229 21.9473 43.1953 C 21.698 43.1953 21.5484 43.1784 21.5152 43.1784 C 21.1662 43.1784 21 43.3472 21 43.6848 C 21 44.0731 21.2493 44.2588 21.7811 44.2588 L 21.8808 44.2588 C 21.914 44.2588 21.9639 44.2419 21.9971 44.2419 L 22.5954 44.1913 C 23.0773 44.1575 23.526 44.1406 23.9581 44.1406 C 24.6062 44.1406 25.1879 44.1744 25.703 44.2081 C 26.0686 44.2419 26.3345 44.2588 26.534 44.2588 C 26.7001 44.2588 26.8497 44.2081 26.9827 44.1069 C 27.099 44.0056 27.1655 43.8705 27.1655 43.7186 C 27.1655 43.3641 26.8331 43.1784 26.185 43.1784 L 25.7197 43.1784 L 25.2543 43.1784 C 24.8389 43.1784 24.5564 43.094 24.4068 42.8914 C 24.2572 42.7057 24.1908 42.3343 24.1908 41.7941 L 24.1908 39.7515 C 24.1908 39.3463 24.2406 39.0931 24.3569 38.9918 C 24.4566 38.9074 24.7724 38.8568 25.271 38.8568 L 25.9191 38.8568 C 26.401 38.8568 26.7168 38.8905 26.8829 38.9581 C 27.1156 39.0594 27.2486 39.2451 27.2486 39.532 C 27.2486 39.6333 27.2652 39.7853 27.315 39.971 C 27.3483 40.1735 27.3815 40.3086 27.3815 40.4099 C 27.3815 40.815 27.5477 41.0176 27.8967 41.0176 C 28.2623 41.0176 28.4451 40.8319 28.4451 40.4267 L 28.4451 39.8359 L 28.4451 38.2659 L 28.4451 37.4556 L 28.4451 36.6453 L 28.4451 36.2739 C 28.4451 35.835 28.2623 35.6156 27.9299 35.6156 C 27.5643 35.6156 27.3815 35.8182 27.3815 36.1895 C 27.3815 36.2908 27.3649 36.4259 27.3316 36.6116 C 27.2984 36.8141 27.2818 36.9661 27.2818 37.0674 C 27.2818 37.54 26.8165 37.7764 25.9191 37.7764 L 25.2211 37.7764 C 24.7392 37.7764 24.44 37.7426 24.3403 37.6582 C 24.2406 37.5738 24.1908 37.3544 24.1908 36.983 L 24.1908 35.5649 C 24.1908 34.5521 24.2406 33.9443 24.3736 33.7755 C 24.5231 33.5729 25.1879 33.4548 26.3512 33.4548 C 27.7139 33.4548 28.5947 33.5561 28.9603 33.7418 C 29.3259 33.9275 29.5087 34.3832 29.5087 35.0923 L 29.5087 35.9701 L 29.5087 36.831 C 29.5087 37.4725 29.6749 37.7764 30.0405 37.7764 C 30.3895 37.7764 30.5723 37.5232 30.5723 36.9998 L 30.5723 36.1558 L 30.5723 35.3961 C 30.5723 35.1598 30.6553 34.7884 30.8382 34.3157 C 31.021 33.843 31.1207 33.5054 31.1207 33.2691 C 31.1207 32.6782 30.8049 32.3744 30.19 32.3744 L 29.6582 32.3744 L 28.711 32.3744 L 26.7001 32.3744 C 25.6864 32.4757 25.0383 32.5094 24.7392 32.5094 C 24.1741 32.5094 23.659 32.4925 23.2103 32.4588 L 21.9971 32.3913 C 21.8808 32.3913 21.7977 32.3744 21.7312 32.3744 C 21.2327 32.3744 21 32.5601 21 32.9315 C 21 33.0834 21.0499 33.2016 21.1496 33.3028 C 21.2493 33.4041 21.3656 33.4548 21.5152 33.4548 C 21.6149 33.4548 21.7645 33.4548 21.9473 33.4379 C 22.0137 33.4379 22.1301 33.421 22.2796 33.421 C 22.8447 33.421 23.1272 33.8599 23.1272 34.7378 L 23.1272 37.5738 L 23.1272 39.0762 L 23.1272 41.8954 L 23.1272 41.8954 Z" fill="#ffffff"/>			<path d="M 35.4082 35.6156 C 35.2753 35.6156 35.159 35.5818 35.0592 35.5143 C 34.8266 35.4636 34.677 35.4299 34.5939 35.4299 C 34.461 35.4299 34.2782 35.4636 34.0289 35.5312 C 33.7796 35.5987 33.5968 35.6156 33.4805 35.6156 C 32.9487 35.6156 32.6994 35.8013 32.6994 36.1727 C 32.6994 36.5272 32.8988 36.696 33.3309 36.696 C 33.4306 36.696 33.5802 36.6622 33.763 36.5609 C 33.9292 36.4765 34.0788 36.4259 34.1951 36.4259 C 34.5275 36.4259 34.7269 36.7804 34.7767 37.4725 L 34.8266 41.4734 L 34.8266 42.3681 C 34.7934 42.9083 34.6272 43.1784 34.2948 43.1784 L 34.0289 43.1784 L 33.7298 43.1784 L 33.4473 43.1784 C 32.9487 43.1784 32.6994 43.3472 32.6994 43.6848 C 32.6994 44.0731 32.9321 44.2588 33.4306 44.2588 L 34.4444 44.2588 C 34.7103 44.225 35.0925 44.2081 35.5744 44.2081 C 35.7406 44.2081 36.0231 44.225 36.3887 44.2419 C 36.7543 44.2588 37.0202 44.2588 37.203 44.2588 L 37.2861 44.2588 C 37.7681 44.2588 38.0173 44.0731 38.0173 43.7017 C 38.0173 43.3641 37.8013 43.1784 37.4025 43.1784 L 37.0368 43.1784 L 36.5051 43.1784 C 36.1727 43.1784 35.9733 42.8745 35.9068 42.2499 C 35.8902 42.1655 35.8902 41.7604 35.8902 41.0345 L 35.8902 39.9541 C 35.8902 39.0087 35.9899 38.3166 36.2225 37.8439 C 36.5549 37.0843 37.2695 36.696 38.3331 36.696 C 38.8483 36.696 39.2803 36.7804 39.6293 36.9492 C 39.9617 37.118 40.1445 37.3037 40.1445 37.5232 C 40.1445 37.6076 40.0947 37.692 40.0282 37.7933 C 39.9118 37.7933 39.8288 37.7764 39.7955 37.7764 C 39.5961 37.7764 39.4299 37.827 39.297 37.9283 C 39.1474 38.0296 39.0809 38.1478 39.0809 38.2659 C 39.0809 38.4348 39.164 38.5867 39.3302 38.688 C 39.4964 38.8061 39.6958 38.8568 39.9451 38.8568 C 40.3107 38.8568 40.6264 38.7386 40.8591 38.4854 C 41.0918 38.2491 41.2081 37.9283 41.2081 37.5232 C 41.2081 36.9661 40.9422 36.5103 40.427 36.1558 C 39.8952 35.8013 39.2139 35.6156 38.3829 35.6156 C 37.336 35.6156 36.5051 35.8688 35.8902 36.3415 L 35.8902 35.987 C 35.8902 35.7506 35.724 35.6156 35.4082 35.6156 L 35.4082 35.6156 Z" fill="#ffffff"/>			<path d="M 49.6004 43.0602 C 50.3815 42.2668 50.7803 41.2033 50.7803 39.8865 C 50.7803 38.5698 50.3981 37.54 49.6337 36.7635 C 48.8692 36.0039 47.8223 35.6156 46.5094 35.6156 C 45.2132 35.6156 44.1828 36.0207 43.4184 36.7973 C 42.6539 37.5738 42.2717 38.6204 42.2717 39.9372 C 42.2717 41.2539 42.6539 42.3174 43.4184 43.094 C 44.1828 43.8705 45.1965 44.2588 46.4595 44.2588 C 47.7558 44.2588 48.8027 43.8705 49.6004 43.0602 L 49.6004 43.0602 ZM 49.7168 39.9203 C 49.7168 40.9501 49.4176 41.7435 48.8526 42.3174 C 48.271 42.8914 47.4733 43.1784 46.4595 43.1784 C 45.4624 43.1784 44.698 42.8914 44.1496 42.3174 C 43.6012 41.7435 43.3353 40.9501 43.3353 39.9372 C 42.8866 39.8021 42.8866 39.7346 43.3353 39.7346 C 43.3851 38.7724 43.6842 38.0296 44.2493 37.4894 C 44.7977 36.9661 45.5621 36.696 46.5426 36.696 C 48.6532 36.696 49.7168 37.7764 49.7168 39.9203 L 49.7168 39.9203 Z" fill="#ffffff"/>			<path d="M 54.5029 35.6156 C 54.4863 35.6156 54.3201 35.5818 54.021 35.5143 C 53.8714 35.4636 53.7052 35.4299 53.5058 35.4299 L 52.841 35.5649 C 52.7912 35.5987 52.7247 35.6156 52.6582 35.6156 C 52.1098 35.6156 51.8439 35.8013 51.8439 36.1558 C 51.8439 36.5272 52.0766 36.696 52.5585 36.696 C 52.6416 36.696 52.7746 36.6622 52.9574 36.5609 C 53.1236 36.4596 53.2565 36.409 53.3562 36.409 C 53.5556 36.409 53.7052 36.4934 53.8049 36.6285 C 53.888 36.7804 53.9379 37.0505 53.9711 37.4556 L 53.9711 38.0802 L 53.9711 40.241 L 53.9711 42.233 C 53.9545 42.9252 53.7551 43.2628 53.3562 43.2628 C 53.19 43.2628 53.0072 43.2628 52.841 43.229 C 52.6582 43.1953 52.5419 43.1784 52.4754 43.1784 C 52.0434 43.1784 51.8439 43.3641 51.8439 43.7017 C 51.8439 44.0731 52.0932 44.2588 52.625 44.2588 C 52.6915 44.2588 52.9906 44.2419 53.539 44.2081 C 53.9711 44.1913 54.3035 44.1744 54.5694 44.1744 C 54.9017 44.1744 55.2009 44.1913 55.4668 44.2081 C 55.9986 44.2419 56.3309 44.2588 56.4306 44.2588 C 56.9126 44.2588 57.1618 44.09 57.1618 43.7186 C 57.1618 43.3641 56.9458 43.1784 56.5303 43.1784 C 56.3974 43.1784 56.2478 43.1953 56.0484 43.229 C 55.849 43.2628 55.6994 43.2797 55.5997 43.2797 C 55.3837 43.2797 55.2341 43.1953 55.151 43.0265 C 55.0679 42.8577 55.0347 42.52 55.0347 42.0305 L 55.0347 39.8359 C 55.0347 38.8061 55.2009 38.0802 55.5332 37.6413 C 55.9986 37.0167 56.7962 36.696 57.8931 36.696 C 58.4581 36.696 58.9733 36.831 59.4386 37.0674 C 59.854 37.3037 60.1199 37.6413 60.2529 38.0465 C 60.3194 38.2828 60.3526 38.6711 60.3526 39.2451 L 60.3526 40.5112 L 60.3526 41.5071 L 60.3526 42.3512 C 60.3194 42.9589 60.1366 43.2628 59.8042 43.2628 C 59.7377 43.2628 59.5715 43.2459 59.3056 43.2122 C 59.1727 43.1953 59.0397 43.1784 58.94 43.1784 C 58.4581 43.1784 58.2254 43.3472 58.2254 43.6848 C 58.2254 44.0731 58.4747 44.2588 58.9733 44.2588 C 59.0065 44.2588 59.3389 44.2419 59.9704 44.2081 C 60.1698 44.2081 60.4523 44.1913 60.7847 44.1913 C 61.1171 44.1913 61.4993 44.2081 61.8981 44.225 C 62.297 44.2588 62.5961 44.2588 62.7789 44.2588 C 62.9783 44.2588 63.1611 44.2081 63.3107 44.1069 C 63.4603 44.0056 63.5434 43.8536 63.5434 43.6848 C 63.5434 43.5498 63.4769 43.4316 63.3439 43.3303 C 63.211 43.229 63.0614 43.1784 62.8952 43.1784 C 62.7955 43.1784 62.6626 43.1953 62.4632 43.2122 C 62.2637 43.2459 62.1142 43.2459 61.9812 43.2459 C 61.6821 43.2459 61.4993 43.0602 61.4328 42.6888 C 61.4162 42.6044 61.4162 42.3174 61.4162 41.8279 L 61.4162 38.688 C 61.4162 38.0802 61.3165 37.5907 61.1503 37.2024 C 60.9342 36.7635 60.5354 36.3752 59.9371 36.0714 C 59.3389 35.7675 58.6908 35.6156 58.026 35.6156 C 56.7796 35.6156 55.7825 35.8857 55.0347 36.3921 L 55.0347 36.0207 C 55.0347 35.7506 54.8519 35.6156 54.5029 35.6156 L 54.5029 35.6156 Z" fill="#ffffff"/>			<path d="M 67.216 43.1784 C 66.1857 43.1784 65.6705 42.5707 65.6705 41.3552 L 65.6705 37.0674 C 65.6705 36.831 65.7536 36.696 65.9364 36.696 L 68.0636 36.696 C 68.5954 36.696 68.8613 36.5103 68.8613 36.1389 C 68.8613 35.8013 68.612 35.6156 68.1301 35.6156 L 66.0195 35.6156 C 65.7868 35.6156 65.6705 35.5143 65.6705 35.3117 L 65.6705 33.1509 C 65.6705 32.6445 65.4877 32.3744 65.1553 32.3744 C 64.7897 32.3744 64.6069 32.6445 64.6069 33.1509 L 64.6069 35.2273 C 64.6069 35.4974 64.5405 35.6156 64.4075 35.6156 L 63.9422 35.6156 C 63.8425 35.6156 63.7428 35.6831 63.6597 35.7844 C 63.5766 35.9026 63.5434 36.0207 63.5434 36.1558 C 63.5434 36.3077 63.5766 36.4428 63.6597 36.5441 C 63.7428 36.6453 63.8591 36.696 63.9921 36.696 L 64.3743 36.696 C 64.5238 36.696 64.6069 36.8141 64.6069 37.0505 L 64.6069 41.2033 C 64.6069 42.233 64.7565 42.9589 65.0556 43.381 C 65.4711 43.9718 66.1691 44.2588 67.1329 44.2588 C 68.1965 44.2588 68.9444 43.938 69.4097 43.2797 C 69.7421 42.807 69.9249 41.9461 69.9249 40.6968 C 69.9249 40.1904 69.7421 39.9203 69.3931 39.9203 C 69.0441 39.9203 68.8613 40.1566 68.8613 40.6293 L 68.8613 41.7266 C 68.8114 42.7057 68.263 43.1784 67.216 43.1784 L 67.216 43.1784 Z" fill="#ffffff"/>			<path d="M 72.3345 40.1229 L 75.0766 40.1229 C 75.5419 40.1229 75.7746 39.9203 75.7746 39.4814 C 75.7746 39.0762 75.5419 38.8737 75.0766 38.8737 L 72.3345 38.8737 C 71.8692 38.8737 71.6366 39.0931 71.6366 39.4983 C 71.6366 39.9203 71.8692 40.1229 72.3345 40.1229 L 72.3345 40.1229 Z" fill="#ffffff"/>			<path d="M 79.4971 41.8448 C 79.4971 42.7395 79.2146 43.1784 78.6662 43.1784 C 78.5499 43.1784 78.4335 43.1784 78.3172 43.1446 C 78.0679 43.1446 77.9184 43.1278 77.8851 43.1278 C 77.5361 43.1278 77.3699 43.3134 77.3699 43.6679 C 77.3699 44.0731 77.6192 44.2588 78.1178 44.2588 L 78.2341 44.2588 L 78.4003 44.2588 L 81.7074 44.2588 L 84.3497 44.2588 L 85.7623 44.2588 L 86.5434 44.2588 L 87.1749 44.2588 C 87.7233 44.2588 88.0058 43.9718 88.0058 43.3641 L 88.0058 42.5875 L 88.0058 41.811 L 88.0058 40.7644 L 88.0058 39.7177 C 88.0058 39.1438 87.7399 38.8568 87.2081 38.8568 C 86.7095 38.8568 86.4603 39.1606 86.4603 39.7346 C 86.4603 39.9372 86.5267 40.241 86.6929 40.6124 C 86.8591 41.0007 86.9422 41.2877 86.9422 41.4903 C 86.9422 42.1149 86.776 42.5369 86.4769 42.7732 C 86.1777 43.0096 85.6127 43.1109 84.815 43.1109 L 82.0065 43.1109 C 81.4415 43.1109 81.0759 43.0771 80.9263 42.9927 C 80.7269 42.8914 80.6105 42.6213 80.5939 42.1824 C 80.5939 42.0642 80.5773 41.8279 80.5773 41.4565 C 80.5607 41.1526 80.5607 40.9163 80.5607 40.7475 L 80.5607 39.7346 C 80.5607 39.3632 80.5939 39.1269 80.6936 39.0256 C 80.7934 38.9243 81.0592 38.8568 81.4913 38.8568 L 82.4884 38.8568 C 83.3194 38.8568 83.7514 39.0762 83.7514 39.4814 L 83.7514 39.9372 L 83.7514 40.4099 C 83.7514 40.815 83.9176 41.0176 84.2832 41.0176 C 84.6322 41.0176 84.815 40.815 84.815 40.393 L 84.815 39.7853 L 84.815 39.1606 C 84.6488 38.5867 84.5658 38.1647 84.5658 37.9283 C 84.5658 37.5232 84.599 37.0505 84.6821 36.5103 C 84.7652 35.9026 84.815 35.5312 84.815 35.4299 C 84.815 34.9403 84.6322 34.6871 84.2832 34.6871 C 83.9176 34.6871 83.7514 34.9741 83.7514 35.5143 L 83.7514 36.2402 L 83.7514 36.8817 C 83.7514 37.4894 83.2861 37.7764 82.3721 37.7764 L 81.4747 37.7764 C 81.2254 37.7764 81.0592 37.7764 80.9595 37.7426 C 80.6936 37.692 80.5607 37.4725 80.5607 37.0674 L 80.5607 36.8817 L 80.5607 36.5947 C 80.328 36.4596 80.328 36.3584 80.5607 36.2739 L 80.5607 35.6156 C 80.5607 34.5014 80.81 33.8093 81.3251 33.5561 C 81.4913 33.4885 81.9899 33.4548 82.8374 33.4548 C 84.1337 33.4548 84.9314 33.5223 85.2471 33.6573 C 85.6626 33.843 85.8786 34.4508 85.8786 35.4636 L 85.8786 36.4259 C 85.8786 37.0674 86.2276 37.3881 86.9422 37.3881 C 87.6402 37.3881 88.0058 37.1687 88.0058 36.7297 C 88.0058 36.5609 87.7565 36.3077 87.2912 35.9701 C 87.0585 35.8013 86.9422 35.5143 86.9422 35.1091 C 86.9422 34.8053 87.0918 34.4508 87.3909 34.0794 C 87.7897 33.5729 88.0058 33.286 88.0058 33.1847 C 88.0058 32.6445 87.69 32.3744 87.0585 32.3744 L 86.5267 32.3744 L 85.5629 32.3744 L 81.159 32.3744 L 80.9762 32.3744 L 78.4169 32.3744 C 78.2341 32.3744 78.1344 32.3744 78.1344 32.3744 C 77.6192 32.3744 77.3699 32.577 77.3699 32.9483 C 77.3699 33.1171 77.4198 33.2522 77.5195 33.3535 C 77.6192 33.4548 77.7355 33.5054 77.8851 33.5054 C 77.9848 33.5054 78.1344 33.5054 78.3172 33.4717 C 78.3837 33.4717 78.5 33.4548 78.6662 33.4548 C 79.2146 33.4548 79.4971 33.8937 79.4971 34.7546 L 79.4971 41.8448 L 79.4971 41.8448 Z" fill="#ffffff"/>			<path d="M 92.7919 35.6156 C 92.7753 35.6156 92.6091 35.5818 92.31 35.5143 C 92.1604 35.4636 91.9942 35.4299 91.7948 35.4299 L 91.1301 35.5649 C 91.0802 35.5987 91.0137 35.6156 90.9473 35.6156 C 90.3988 35.6156 90.1329 35.8013 90.1329 36.1558 C 90.1329 36.5272 90.3656 36.696 90.8475 36.696 C 90.9306 36.696 91.0636 36.6622 91.2464 36.5609 C 91.4126 36.4596 91.5455 36.409 91.6452 36.409 C 91.8447 36.409 91.9942 36.4934 92.0939 36.6285 C 92.177 36.7804 92.2269 37.0505 92.2601 37.4556 L 92.2601 38.0802 L 92.2601 40.241 L 92.2601 42.233 C 92.2435 42.9252 92.0441 43.2628 91.6452 43.2628 C 91.479 43.2628 91.2962 43.2628 91.1301 43.229 C 90.9473 43.1953 90.8309 43.1784 90.7645 43.1784 C 90.3324 43.1784 90.1329 43.3641 90.1329 43.7017 C 90.1329 44.0731 90.3822 44.2588 90.914 44.2588 C 90.9805 44.2588 91.2796 44.2419 91.828 44.2081 C 92.2601 44.1913 92.5925 44.1744 92.8584 44.1744 C 93.1908 44.1744 93.4899 44.1913 93.7558 44.2081 C 94.2876 44.2419 94.6199 44.2588 94.7197 44.2588 C 95.2016 44.2588 95.4509 44.09 95.4509 43.7186 C 95.4509 43.3641 95.2348 43.1784 94.8194 43.1784 C 94.6864 43.1784 94.5368 43.1953 94.3374 43.229 C 94.138 43.2628 93.9884 43.2797 93.8887 43.2797 C 93.6727 43.2797 93.5231 43.1953 93.44 43.0265 C 93.3569 42.8577 93.3237 42.52 93.3237 42.0305 L 93.3237 39.8359 C 93.3237 38.8061 93.4899 38.0802 93.8223 37.6413 C 94.2876 37.0167 95.0853 36.696 96.1821 36.696 C 96.7471 36.696 97.2623 36.831 97.7276 37.0674 C 98.1431 37.3037 98.409 37.6413 98.5419 38.0465 C 98.6084 38.2828 98.6416 38.6711 98.6416 39.2451 L 98.6416 40.5112 L 98.6416 41.5071 L 98.6416 42.3512 C 98.6084 42.9589 98.4256 43.2628 98.0932 43.2628 C 98.0267 43.2628 97.8605 43.2459 97.5947 43.2122 C 97.4617 43.1953 97.3288 43.1784 97.229 43.1784 C 96.7471 43.1784 96.5145 43.3472 96.5145 43.6848 C 96.5145 44.0731 96.7637 44.2588 97.2623 44.2588 C 97.2955 44.2588 97.6279 44.2419 98.2594 44.2081 C 98.4588 44.2081 98.7413 44.1913 99.0737 44.1913 C 99.4061 44.1913 99.7883 44.2081 100.1871 44.225 C 100.586 44.2588 100.8851 44.2588 101.0679 44.2588 C 101.2673 44.2588 101.4501 44.2081 101.5997 44.1069 C 101.7493 44.0056 101.8324 43.8536 101.8324 43.6848 C 101.8324 43.5498 101.7659 43.4316 101.6329 43.3303 C 101.5 43.229 101.3504 43.1784 101.1842 43.1784 C 101.0845 43.1784 100.9516 43.1953 100.7522 43.2122 C 100.5527 43.2459 100.4032 43.2459 100.2702 43.2459 C 99.9711 43.2459 99.7883 43.0602 99.7218 42.6888 C 99.7052 42.6044 99.7052 42.3174 99.7052 41.8279 L 99.7052 38.688 C 99.7052 38.0802 99.6055 37.5907 99.4393 37.2024 C 99.2233 36.7635 98.8244 36.3752 98.2262 36.0714 C 97.6279 35.7675 96.9798 35.6156 96.315 35.6156 C 95.0686 35.6156 94.0715 35.8857 93.3237 36.3921 L 93.3237 36.0207 C 93.3237 35.7506 93.1409 35.6156 92.7919 35.6156 L 92.7919 35.6156 Z" fill="#ffffff"/>			<path d="M 102.8793 36.7973 C 102.1814 37.5738 101.8324 38.6204 101.8324 39.9203 C 101.8324 41.2202 102.1647 42.2668 102.8627 43.0602 C 103.5607 43.8705 104.4747 44.2588 105.6214 44.2588 C 106.7514 44.2588 107.6156 43.938 108.2139 43.2966 L 108.2139 43.5835 L 108.2139 43.6679 C 108.2139 44.0731 108.3634 44.2588 108.6958 44.2588 L 109.078 44.2588 L 109.4935 44.2588 L 110.0419 44.2588 L 110.5903 44.2588 C 111.1221 44.2588 111.4046 44.09 111.4046 43.7186 C 111.4046 43.3641 111.1553 43.1784 110.69 43.1784 L 110.2579 43.1784 L 109.8591 43.1784 C 109.6098 43.1784 109.4603 43.094 109.3938 42.9083 C 109.3273 42.7226 109.2775 42.2499 109.2775 41.4734 L 109.2775 38.5529 L 109.2775 36.8479 L 109.2775 35.5312 L 109.2775 34.1807 L 109.2775 33.2691 L 109.2775 33.0665 C 109.2775 32.6107 109.1113 32.3744 108.8121 32.3744 L 108.3801 32.3744 L 107.948 32.3744 L 107.3996 32.3744 L 106.9176 32.3744 C 106.3526 32.3744 106.0867 32.5601 106.0867 32.9146 C 106.0867 33.286 106.3194 33.4548 106.7847 33.4548 L 107.2168 33.4548 L 107.6488 33.4548 C 107.9314 33.4548 108.1142 33.6236 108.1806 33.9612 C 108.1973 34.0625 108.2139 34.3326 108.2139 34.7546 L 108.2139 36.409 C 107.6488 35.8857 106.8013 35.6156 105.6712 35.6156 C 104.5079 35.6156 103.5773 36.0207 102.8793 36.7973 L 102.8793 36.7973 ZM 107.3663 42.672 C 106.9176 43.0096 106.3692 43.1784 105.7045 43.1784 C 104.8403 43.1784 104.1423 42.8914 103.6438 42.3006 C 103.1452 41.7266 102.896 40.9163 102.896 39.8865 C 102.896 38.9074 103.1286 38.1309 103.6105 37.5569 C 104.0925 36.983 104.7738 36.696 105.638 36.696 C 106.2695 36.696 106.8345 36.8817 107.3331 37.2362 C 107.7319 37.54 107.9978 37.9452 108.1142 38.4854 C 108.1806 38.7555 108.2139 39.2451 108.2139 39.9541 C 108.2139 40.528 108.1806 40.9838 108.1474 41.3215 C 108.0643 41.8954 107.7984 42.3343 107.3663 42.672 L 107.3663 42.672 Z" fill="#ffffff"/>			<path d="M 119.9133 41.8954 C 119.9133 42.7901 119.6308 43.229 119.0824 43.229 C 118.9162 43.229 118.7999 43.229 118.7334 43.2122 C 118.5506 43.1953 118.401 43.1784 118.3013 43.1784 C 118.1517 43.1784 118.0354 43.229 117.9357 43.3303 C 117.836 43.4316 117.7861 43.5667 117.7861 43.7017 C 117.7861 44.0731 118.0354 44.2588 118.534 44.2588 L 118.6835 44.2588 C 118.7334 44.2588 118.7666 44.2419 118.7999 44.2419 L 119.6308 44.1913 C 119.8634 44.1744 120.1792 44.1575 120.578 44.1575 C 121.0101 44.1575 121.4422 44.1744 121.841 44.1913 L 123.0542 44.2419 C 123.3201 44.2588 123.5694 44.2588 123.8353 44.2588 C 125.0983 44.2588 126.1785 44.0056 127.0759 43.4654 C 127.8071 43.0433 128.4053 42.3681 128.8374 41.4396 C 129.2695 40.528 129.4856 39.4814 129.4856 38.3335 C 129.4856 37.0336 129.203 35.8857 128.6712 34.9066 C 128.1228 33.9275 127.3916 33.2353 126.461 32.8302 C 125.7464 32.5263 124.8656 32.3744 123.8186 32.3744 C 123.453 32.3744 123.1539 32.3913 122.9545 32.3913 L 121.8078 32.4757 C 121.4754 32.5094 121.1597 32.5094 120.8439 32.5094 C 120.4451 32.5094 120.0629 32.4925 119.7139 32.4588 L 118.7999 32.3913 C 118.7001 32.3913 118.6171 32.3744 118.5672 32.3744 C 118.0354 32.3744 117.7861 32.5601 117.7861 32.9315 C 117.7861 33.286 117.9523 33.4548 118.3013 33.4548 C 118.3844 33.4548 118.534 33.4548 118.7334 33.421 C 118.8663 33.421 118.9827 33.4041 119.0824 33.4041 C 119.6308 33.4041 119.9133 33.8599 119.9133 34.7378 L 119.9133 41.8954 L 119.9133 41.8954 ZM 121.3259 33.6236 C 121.5585 33.5223 122.2233 33.4548 123.2868 33.4548 C 124.1178 33.4548 124.8324 33.5392 125.4306 33.6911 C 126.3613 33.9275 127.0925 34.4677 127.6243 35.2948 C 128.1561 36.122 128.422 37.1349 128.422 38.3335 C 128.422 39.8528 127.9733 41.0851 127.1091 42.0136 C 126.3779 42.7901 125.198 43.1784 123.586 43.1784 C 122.6553 43.1784 122.0903 43.1615 121.8909 43.1109 C 121.276 42.9927 120.9769 42.6551 120.9769 42.098 L 120.9769 34.5352 C 120.9769 34.0287 121.0932 33.7249 121.3259 33.6236 L 121.3259 33.6236 Z" fill="#ffffff"/>			<path d="M 137.9111 36.5947 C 137.1467 35.9532 136.1662 35.6156 135.0029 35.6156 C 133.6734 35.6156 132.6098 36.0376 131.7789 36.8479 C 130.948 37.6751 130.5491 38.7386 130.5491 40.0554 C 130.5491 41.3383 130.8981 42.3681 131.6293 43.1278 C 132.3606 43.8874 133.341 44.2588 134.5708 44.2588 C 135.5513 44.2588 136.4321 43.9887 137.1965 43.4316 C 137.961 42.8914 138.3598 42.2668 138.3598 41.5578 C 138.3598 41.1526 138.1272 40.9332 137.6785 40.9332 C 137.3461 40.9332 137.1467 41.0682 137.0636 41.3215 L 136.8974 41.7941 C 136.7644 42.1993 136.4653 42.5369 136.0166 42.7901 C 135.5513 43.0602 135.0527 43.1784 134.521 43.1784 C 133.69 43.1784 132.9921 42.9083 132.4436 42.3343 C 131.8786 41.7604 131.6127 41.0513 131.6127 40.1904 C 131.6127 40.106 131.6293 40.0385 131.6958 40.0047 C 131.7457 39.971 131.862 39.9372 132.0282 39.9372 L 138.3764 39.9372 C 138.6922 39.9372 138.8916 39.9034 138.9581 39.8021 C 139.0246 39.7177 139.0578 39.4814 139.0578 39.0762 C 139.0578 38.0802 138.6756 37.2531 137.9111 36.5947 L 137.9111 36.5947 ZM 132.6431 37.3037 C 133.341 36.8986 134.1055 36.696 134.9697 36.696 C 135.7673 36.696 136.4819 36.8986 137.0802 37.2868 C 137.6785 37.6751 137.9942 38.1309 137.9942 38.6542 C 137.9942 38.7893 137.828 38.8568 137.5123 38.8568 L 132.1113 38.8568 C 131.7789 38.8568 131.6127 38.7893 131.6127 38.6542 C 131.6127 38.1647 131.9451 37.7089 132.6431 37.3037 L 132.6431 37.3037 Z" fill="#ffffff"/>			<path d="M 143.4949 37.2868 C 143.4451 37.1349 143.4285 37.0167 143.4285 36.9323 C 143.4285 36.7804 143.5282 36.696 143.7608 36.696 L 144.276 36.696 L 144.6416 36.696 C 145.1734 36.696 145.4393 36.5272 145.4393 36.1727 C 145.4393 35.8013 145.1568 35.6156 144.6084 35.6156 C 144.4921 35.6156 144.409 35.6156 144.3425 35.5818 L 143.7276 35.5481 C 143.3121 35.5312 142.9964 35.5143 142.797 35.5143 C 142.5311 35.5143 142.2652 35.5312 141.9993 35.5312 L 141.2182 35.6156 L 140.9856 35.6156 C 140.4039 35.6156 140.1214 35.8182 140.1214 36.1895 C 140.1214 36.5272 140.3042 36.696 140.6864 36.696 L 141.0354 36.696 L 141.401 36.696 C 141.6171 36.696 141.7999 36.9154 141.966 37.3206 L 144.4256 43.4991 C 144.625 44.0056 144.974 44.2588 145.4393 44.2588 C 145.9212 44.2588 146.2702 44.0056 146.4863 43.4991 L 148.896 37.4894 C 149.0954 36.9661 149.3114 36.696 149.5275 36.696 L 149.8931 36.696 L 150.159 36.696 C 150.5578 36.696 150.7572 36.5272 150.7572 36.1558 C 150.7572 35.8013 150.4913 35.6156 149.9595 35.6156 C 149.7934 35.6156 149.5441 35.5987 149.1951 35.5649 C 148.6301 35.5312 148.2146 35.5143 147.9653 35.5143 C 147.7659 35.5143 147.5831 35.5481 147.4169 35.6156 L 146.6358 35.6156 L 146.4863 35.6156 L 146.3367 35.6156 C 145.7384 35.6156 145.4393 35.8013 145.4393 36.1727 C 145.4393 36.5272 145.6886 36.696 146.2204 36.696 L 146.7688 36.696 L 147.3338 36.696 C 147.6662 36.696 147.8324 36.831 147.8324 37.0674 C 147.8324 37.1687 147.7659 37.3712 147.6496 37.692 L 145.672 43.0265 L 143.6279 37.6582 L 143.4949 37.2868 L 143.4949 37.2868 Z" fill="#ffffff"/>			<path d="M 158.1192 36.5947 C 157.3548 35.9532 156.3743 35.6156 155.211 35.6156 C 153.8815 35.6156 152.8179 36.0376 151.987 36.8479 C 151.1561 37.6751 150.7572 38.7386 150.7572 40.0554 C 150.7572 41.3383 151.1062 42.3681 151.8374 43.1278 C 152.5686 43.8874 153.5491 44.2588 154.7789 44.2588 C 155.7594 44.2588 156.6402 43.9887 157.4046 43.4316 C 158.1691 42.8914 158.5679 42.2668 158.5679 41.5578 C 158.5679 41.1526 158.3353 40.9332 157.8866 40.9332 C 157.5542 40.9332 157.3548 41.0682 157.2717 41.3215 L 157.1055 41.7941 C 156.9725 42.1993 156.6734 42.5369 156.2247 42.7901 C 155.7594 43.0602 155.2608 43.1784 154.729 43.1784 C 153.8981 43.1784 153.2001 42.9083 152.6517 42.3343 C 152.0867 41.7604 151.8208 41.0513 151.8208 40.1904 C 151.8208 40.106 151.8374 40.0385 151.9039 40.0047 C 151.9538 39.971 152.0701 39.9372 152.2363 39.9372 L 158.5845 39.9372 C 158.9003 39.9372 159.0997 39.9034 159.1662 39.8021 C 159.2327 39.7177 159.2659 39.4814 159.2659 39.0762 C 159.2659 38.0802 158.8837 37.2531 158.1192 36.5947 L 158.1192 36.5947 ZM 152.8512 37.3037 C 153.5491 36.8986 154.3136 36.696 155.1777 36.696 C 155.9754 36.696 156.69 36.8986 157.2883 37.2868 C 157.8866 37.6751 158.2023 38.1309 158.2023 38.6542 C 158.2023 38.7893 158.0361 38.8568 157.7204 38.8568 L 152.3194 38.8568 C 151.987 38.8568 151.8208 38.7893 151.8208 38.6542 C 151.8208 38.1647 152.1532 37.7089 152.8512 37.3037 L 152.8512 37.3037 Z" fill="#ffffff"/>			<path d="M 163.5202 33.134 L 163.5202 32.8808 C 163.5202 32.5432 163.3873 32.3744 163.138 32.3744 L 162.6394 32.3744 L 162.1409 32.3744 L 161.7088 32.3744 L 161.31 32.3744 L 160.9942 32.3744 C 160.5455 32.3744 160.3295 32.5601 160.3295 32.9146 C 160.3295 33.286 160.5455 33.4548 160.9942 33.4548 C 161.0773 33.4548 161.1936 33.4379 161.3432 33.3704 C 161.6423 33.2691 161.8085 33.2016 161.8584 33.2016 C 162.1243 33.2016 162.2905 33.3366 162.3902 33.6067 C 162.4234 33.7418 162.44 33.9781 162.4566 34.3157 L 162.4566 37.4725 L 162.4566 40.2242 L 162.44 41.4734 C 162.4234 42.2499 162.3902 42.7226 162.3237 42.9083 C 162.2572 43.094 162.1243 43.1784 161.8916 43.1784 L 161.31 43.1784 L 161.1438 43.1784 L 160.9942 43.1784 C 160.5455 43.1784 160.3295 43.3472 160.3295 43.6848 C 160.3295 44.0731 160.5621 44.2588 161.0607 44.2588 L 161.1604 44.2588 C 161.3266 44.2588 161.5925 44.2588 161.9747 44.225 C 162.3403 44.2081 162.6228 44.1913 162.8223 44.1913 C 163.0383 44.1913 163.354 44.2081 163.7695 44.225 C 164.1684 44.2588 164.4675 44.2588 164.6669 44.2588 C 165.1322 44.2588 165.3815 44.09 165.3815 43.7186 C 165.3815 43.3641 165.1655 43.1784 164.7666 43.1784 L 164.4841 43.1784 L 164.0188 43.1784 C 163.6864 43.1784 163.5202 42.8914 163.5202 42.3006 L 163.5202 36.9154 L 163.5202 33.134 L 163.5202 33.134 Z" fill="#ffffff"/>			<path d="M 174.0397 43.0602 C 174.8208 42.2668 175.2197 41.2033 175.2197 39.8865 C 175.2197 38.5698 174.8374 37.54 174.073 36.7635 C 173.3085 36.0039 172.2616 35.6156 170.9487 35.6156 C 169.6525 35.6156 168.6221 36.0207 167.8577 36.7973 C 167.0932 37.5738 166.711 38.6204 166.711 39.9372 C 166.711 41.2539 167.0932 42.3174 167.8577 43.094 C 168.6221 43.8705 169.6358 44.2588 170.8988 44.2588 C 172.1951 44.2588 173.2421 43.8705 174.0397 43.0602 L 174.0397 43.0602 ZM 174.1561 39.9203 C 174.1561 40.9501 173.8569 41.7435 173.2919 42.3174 C 172.7103 42.8914 171.9126 43.1784 170.8988 43.1784 C 169.9017 43.1784 169.1373 42.8914 168.5889 42.3174 C 168.0405 41.7435 167.7746 40.9501 167.7746 39.9372 C 167.3259 39.8021 167.3259 39.7346 167.7746 39.7346 C 167.8244 38.7724 168.1236 38.0296 168.6886 37.4894 C 169.237 36.9661 170.0014 36.696 170.9819 36.696 C 173.0925 36.696 174.1561 37.7764 174.1561 39.9203 L 174.1561 39.9203 Z" fill="#ffffff"/>			<path d="M 179.0253 35.3624 C 178.9256 35.3624 178.7926 35.413 178.5932 35.4974 C 178.3938 35.5818 178.2276 35.6156 178.1279 35.6156 C 177.9949 35.6156 177.7789 35.5649 177.4798 35.4468 C 177.3136 35.3961 177.1806 35.3624 177.0643 35.3624 C 176.5325 35.3624 176.2832 35.5649 176.2832 35.9363 C 176.2832 36.3415 176.5159 36.5272 177.0145 36.5272 C 177.1142 36.5272 177.2637 36.5609 177.4632 36.6116 C 177.6626 36.6791 177.7955 36.696 177.8952 36.696 C 178.2276 36.696 178.3938 36.9661 178.4104 37.4894 L 178.4104 44.1744 C 178.3938 45.1873 178.3605 45.8119 178.2941 46.0482 C 178.2276 46.2677 178.078 46.3858 177.8288 46.3858 L 177.3302 46.3858 C 177.164 46.4027 177.0311 46.4196 176.9646 46.4196 C 176.4993 46.4196 176.2832 46.5884 176.2832 46.9429 C 176.2832 47.078 176.3497 47.213 176.4993 47.3312 C 176.6488 47.4325 176.8316 47.5 177.0477 47.5 C 177.1973 47.5 177.5296 47.4494 178.0282 47.3818 C 178.2276 47.3481 178.4603 47.3312 178.7594 47.3312 C 179.2912 47.3312 179.7066 47.3481 179.9892 47.3987 C 180.3548 47.4662 180.6207 47.5 180.8201 47.5 C 181.3353 47.5 181.6012 47.3143 181.6012 46.9598 C 181.6012 46.5884 181.3851 46.4196 180.953 46.4196 C 180.8533 46.4196 180.7038 46.4027 180.521 46.4027 C 180.3215 46.3858 180.1886 46.3858 180.1055 46.3858 C 179.7897 46.3858 179.5903 46.2001 179.5072 45.8288 C 179.474 45.6937 179.474 45.4067 179.474 44.9678 L 179.474 43.4823 C 180.0889 44.0056 180.9032 44.2588 181.9003 44.2588 C 183.0968 44.2588 184.0607 43.8536 184.7753 43.0433 C 185.4899 42.233 185.8555 41.1358 185.8555 39.7515 C 185.8555 38.4854 185.5065 37.4725 184.8418 36.7297 C 184.1604 35.987 183.2464 35.6156 182.0997 35.6156 C 180.9863 35.6156 180.1055 35.8857 179.474 36.4259 L 179.474 35.8519 C 179.474 35.5312 179.3244 35.3624 179.0253 35.3624 L 179.0253 35.3624 ZM 180.604 37.1687 C 181.0694 36.8648 181.5845 36.696 182.1828 36.696 C 183.9111 36.696 184.7919 37.7764 184.7919 39.9203 C 184.7919 40.9669 184.5426 41.7772 184.0607 42.3343 C 183.5788 42.9083 182.8974 43.1784 182.0166 43.1784 C 181.4184 43.1784 180.9364 43.0602 180.5376 42.7901 C 180.1387 42.5369 179.8728 42.2499 179.7399 41.9123 C 179.6069 41.5916 179.5405 41.0682 179.5405 40.3423 C 179.4241 40.2917 179.4241 40.2242 179.5405 40.1229 C 179.5405 40.0047 179.5571 39.9203 179.5571 39.8697 C 179.5571 39.2788 179.6236 38.7724 179.7399 38.3335 C 179.8562 37.8608 180.1387 37.4725 180.604 37.1687 L 180.604 37.1687 Z" fill="#ffffff"/>			<path d="M 194.2811 36.5947 C 193.5166 35.9532 192.5361 35.6156 191.3728 35.6156 C 190.0434 35.6156 188.9798 36.0376 188.1488 36.8479 C 187.3179 37.6751 186.9191 38.7386 186.9191 40.0554 C 186.9191 41.3383 187.2681 42.3681 187.9993 43.1278 C 188.7305 43.8874 189.711 44.2588 190.9408 44.2588 C 191.9212 44.2588 192.802 43.9887 193.5665 43.4316 C 194.3309 42.8914 194.7298 42.2668 194.7298 41.5578 C 194.7298 41.1526 194.4971 40.9332 194.0484 40.9332 C 193.716 40.9332 193.5166 41.0682 193.4335 41.3215 L 193.2673 41.7941 C 193.1344 42.1993 192.8353 42.5369 192.3866 42.7901 C 191.9212 43.0602 191.4227 43.1784 190.8909 43.1784 C 190.06 43.1784 189.362 42.9083 188.8136 42.3343 C 188.2486 41.7604 187.9827 41.0513 187.9827 40.1904 C 187.9827 40.106 187.9993 40.0385 188.0658 40.0047 C 188.1156 39.971 188.2319 39.9372 188.3981 39.9372 L 194.7464 39.9372 C 195.0621 39.9372 195.2616 39.9034 195.328 39.8021 C 195.3945 39.7177 195.4277 39.4814 195.4277 39.0762 C 195.4277 38.0802 195.0455 37.2531 194.2811 36.5947 L 194.2811 36.5947 ZM 189.013 37.3037 C 189.711 36.8986 190.4754 36.696 191.3396 36.696 C 192.1373 36.696 192.8519 36.8986 193.4501 37.2868 C 194.0484 37.6751 194.3642 38.1309 194.3642 38.6542 C 194.3642 38.7893 194.198 38.8568 193.8822 38.8568 L 188.4812 38.8568 C 188.1488 38.8568 187.9827 38.7893 187.9827 38.6542 C 187.9827 38.1647 188.315 37.7089 189.013 37.3037 L 189.013 37.3037 Z" fill="#ffffff"/>			<path d="M 199.2001 35.6156 C 199.0672 35.6156 198.9509 35.5818 198.8512 35.5143 C 198.6185 35.4636 198.4689 35.4299 198.3858 35.4299 C 198.2529 35.4299 198.0701 35.4636 197.8208 35.5312 C 197.5715 35.5987 197.3887 35.6156 197.2724 35.6156 C 196.7406 35.6156 196.4913 35.8013 196.4913 36.1727 C 196.4913 36.5272 196.6908 36.696 197.1228 36.696 C 197.2225 36.696 197.3721 36.6622 197.5549 36.5609 C 197.7211 36.4765 197.8707 36.4259 197.987 36.4259 C 198.3194 36.4259 198.5188 36.7804 198.5686 37.4725 L 198.6185 41.4734 L 198.6185 42.3681 C 198.5853 42.9083 198.4191 43.1784 198.0867 43.1784 L 197.8208 43.1784 L 197.5217 43.1784 L 197.2392 43.1784 C 196.7406 43.1784 196.4913 43.3472 196.4913 43.6848 C 196.4913 44.0731 196.724 44.2588 197.2225 44.2588 L 198.2363 44.2588 C 198.5022 44.225 198.8844 44.2081 199.3663 44.2081 C 199.5325 44.2081 199.815 44.225 200.1806 44.2419 C 200.5462 44.2588 200.8121 44.2588 200.9949 44.2588 L 201.078 44.2588 C 201.56 44.2588 201.8092 44.0731 201.8092 43.7017 C 201.8092 43.3641 201.5932 43.1784 201.1944 43.1784 L 200.8288 43.1784 L 200.297 43.1784 C 199.9646 43.1784 199.7652 42.8745 199.6987 42.2499 C 199.6821 42.1655 199.6821 41.7604 199.6821 41.0345 L 199.6821 39.9541 C 199.6821 39.0087 199.7818 38.3166 200.0145 37.8439 C 200.3468 37.0843 201.0614 36.696 202.125 36.696 C 202.6402 36.696 203.0723 36.7804 203.4212 36.9492 C 203.7536 37.118 203.9364 37.3037 203.9364 37.5232 C 203.9364 37.6076 203.8866 37.692 203.8201 37.7933 C 203.7038 37.7933 203.6207 37.7764 203.5874 37.7764 C 203.388 37.7764 203.2218 37.827 203.0889 37.9283 C 202.9393 38.0296 202.8728 38.1478 202.8728 38.2659 C 202.8728 38.4348 202.9559 38.5867 203.1221 38.688 C 203.2883 38.8061 203.4877 38.8568 203.737 38.8568 C 204.1026 38.8568 204.4184 38.7386 204.651 38.4854 C 204.8837 38.2491 205 37.9283 205 37.5232 C 205 36.9661 204.7341 36.5103 204.2189 36.1558 C 203.6871 35.8013 203.0058 35.6156 202.1749 35.6156 C 201.1279 35.6156 200.297 35.8688 199.6821 36.3415 L 199.6821 35.987 C 199.6821 35.7506 199.5159 35.6156 199.2001 35.6156 L 199.2001 35.6156 Z" fill="#ffffff"/>		</g>	</g></svg>