<?xml version="1.0" encoding="utf-8"?>
<!-- Generator: Adobe Illustrator 15.0.2, SVG Export Plug-In . SVG Version: 6.00 Build 0)  -->
<!DOCTYPE svg PUBLIC "-//W3C//DTD SVG 1.1//EN" "http://www.w3.org/Graphics/SVG/1.1/DTD/svg11.dtd">
<svg version="1.1" id="Layer_2" xmlns="http://www.w3.org/2000/svg" xmlns:xlink="http://www.w3.org/1999/xlink" x="0px" y="0px"
	 width="230px" height="64px" viewBox="0 0 230 64" enable-background="new 0 0 230 64" xml:space="preserve">
<g>
	<g>
		<path d="M138.6,22.1h4.7v2.5h0.1c0.8-1.9,2.5-3.2,4.6-3.2c1.1,0,2.1,0.3,2.7,0.7l-1.8,4.9c-0.5-0.4-1.4-0.7-1.9-0.7
			c-1.8,0-3.5,1.4-3.5,3.5v15.3h-5V22.1z"/>
		<path d="M173.3,40.3c-2.8,3.5-6.6,5.6-10.8,5.7c-8.1,0-12.8-6.1-12.8-12.2s4.7-12.2,12.8-12.2c4.8,0,12,4,12,13v0.9h-19.3
			c0.3,3.5,3.6,6.1,7.1,6.1c2.7,0,5-1.3,6.7-3.6L173.3,40.3z M168.7,31.3c-1.1-3.5-3.7-5.4-6.9-5.4c-3.2,0-5.7,2-6.6,5.4H168.7z"/>
		<path d="M200.4,40.3c-2.8,3.5-6.6,5.6-10.8,5.7c-8.1,0-12.8-6.1-12.8-12.2s4.7-12.2,12.8-12.2c4.8,0,12,4,12,13v0.9h-19.3
			c0.3,3.5,3.6,6.1,7.1,6.1c2.7,0,5-1.3,6.7-3.6L200.4,40.3z M195.8,31.3c-1.1-3.5-3.7-5.4-6.9-5.4c-3.2,0-5.8,2-6.6,5.4H195.8z"/>
	</g>
	<path d="M208.7,15.2V36c0,2.7,0.6,3.6,2.1,4.5l2.7,1.5l-2.2,3.9c-5.1-2.4-7.5-4.2-7.5-9.1V15.2H208.7z"/>
	<path d="M55.5,38.4c1.8,1.9,4.7,3.4,7.3,3.4c2.9,0,4.6-1.6,4.6-2.9c0-1.5-1.2-2.3-3-2.7l-2.8-0.5c-6.5-1.2-8.3-3.3-8.3-6.6
		c0-3.9,3.3-7.6,9.1-7.6c3.2,0,6,1,9.2,3.2l-2.8,3.5c-2.4-2.1-4.6-2.6-6.2-2.6c-2.2,0-4.3,1.1-4.3,2.9c0,1.4,1.1,2.1,3,2.4l5,1
		c4.1,0.8,6.1,2.7,6.1,6.2c0,3.4-2.8,7.8-9.8,7.8c-3.9,0-7.3-1.4-10.4-4.1L55.5,38.4z"/>
	<path d="M102.4,42.5L102.4,42.5c-1.7,2.1-4.6,3.5-7.7,3.5c-7.6,0-12-6.2-12-12.2c0-5.7,4.7-12.2,12.3-12.2c3.5,0,6.1,1.5,7.4,3.5
		h0.1v-9.7h5v30.1h-5V42.5z M95.3,41.2c3.9,0,7.3-3.4,7.3-7.5c0-4.2-3.4-7.5-7.3-7.5c-4,0-7.4,3.4-7.4,7.5
		C87.9,37.9,91.3,41.2,95.3,41.2z"/>
	<path d="M133.8,40.3c-2.8,3.5-6.6,5.6-10.8,5.7c-8.1,0-12.8-6.1-12.8-12.2s4.7-12.2,12.8-12.2c4.8,0,12,4,12,13v0.9h-19.3
		c0.3,3.5,3.6,6.1,7.1,6.1c2.7,0,5-1.3,6.7-3.6L133.8,40.3z M129.2,31.3c-1.1-3.5-3.7-5.4-6.9-5.4c-3.2,0-5.8,2-6.6,5.4H129.2z"/>
	<path d="M77.6,14.5c1.5,0,2.8,1.2,2.8,2.8s-1.2,2.8-2.8,2.8c-1.5,0-2.8-1.2-2.8-2.8S76.1,14.5,77.6,14.5z"/>
	<path d="M75.1,21.8h5V45h-5V21.8z"/>
	<path d="M19,33.1c2.2-1.1,4.8-0.2,5.9,2c1.1,2.2,0.2,4.8-2,5.9c-2.2,1.1-4.8,0.2-5.9-2C16,36.8,16.9,34.2,19,33.1z"/>
	<path d="M39.9,21.1c2.2-1.1,4.8-0.2,5.9,2c1.1,2.2,0.2,4.8-2,5.9C41.6,30,39,29.2,38,27C36.9,24.8,37.8,22.2,39.9,21.1z"/>
	<path d="M23.4,21.3c2,1.3,2.6,4.1,1.2,6.1c-1.3,2-4.1,2.6-6.1,1.2c-2-1.3-2.6-4.1-1.2-6.1C18.7,20.5,21.4,20,23.4,21.3z"/>
	<path d="M44.2,33.5c2,1.3,2.6,4.1,1.2,6.1c-1.3,2-4,2.6-6.1,1.2c-2-1.3-2.6-4.1-1.2-6.1C39.5,32.7,42.2,32.1,44.2,33.5z"/>
	<path d="M35.7,19.2c-0.1,2.4-2.2,4.3-4.6,4.1c-2.4-0.1-4.3-2.2-4.1-4.6c0.1-2.4,2.2-4.3,4.6-4.1C34,14.8,35.9,16.8,35.7,19.2z"/>
	<path d="M35.8,43.3c-0.1,2.4-2.2,4.3-4.6,4.1c-2.4-0.1-4.3-2.2-4.1-4.6c0.1-2.4,2.2-4.3,4.6-4.1C34.1,38.9,36,40.9,35.8,43.3z"/>
</g>
</svg>
