<?xml version="1.0" encoding="utf-8"?>
<!-- Generator: Adobe Illustrator 16.0.3, SVG Export Plug-In . SVG Version: 6.00 Build 0)  -->
<!DOCTYPE svg PUBLIC "-//W3C//DTD SVG 1.1//EN" "http://www.w3.org/Graphics/SVG/1.1/DTD/svg11.dtd">
<svg version="1.1" id="Layer_1" xmlns="http://www.w3.org/2000/svg" xmlns:xlink="http://www.w3.org/1999/xlink" x="0px" y="0px"
	 width="612px" height="792px" viewBox="0 0 612 792" enable-background="new 0 0 612 792" xml:space="preserve">
<g>
	<g>
		<g id="android-logo-b">
			<ellipse fill="#A4C639" stroke="#FFFFFF" stroke-width="14.4" cx="83.382" cy="62.446" rx="53.062" ry="48.98"/>
			<path fill="#A4C639" stroke="#FFFFFF" stroke-width="14.4" d="M43.148,50.201h80.467c7.085,0,12.828,5.743,12.828,12.828v80.466
				c0,7.085-5.743,12.828-12.828,12.828H43.148c-7.085,0-12.828-5.743-12.828-12.828V63.029
				C30.32,55.944,36.063,50.201,43.148,50.201z"/>
		</g>
	</g>
	<g>
		<g id="android-logo-a">
			<path fill="#A4C639" stroke="#FFFFFF" stroke-width="7.2" d="M48.616,0.476L48.616,0.476c-1.831,1.015-2.492,3.321-1.478,5.152
				l20.636,37.229c1.016,1.831,3.322,2.492,5.152,1.478l0,0c1.831-1.015,2.492-3.322,1.478-5.152L53.769,1.954
				C52.754,0.123,50.447-0.539,48.616,0.476z"/>
			<path id="android-logo-c" fill="#A4C639" stroke="#FFFFFF" stroke-width="7.2" d="M152.77,62.446L152.77,62.446
				c-7.729,0-13.994,6.266-13.994,13.994v49.562c0,7.729,6.266,13.994,13.994,13.994l0,0c7.729,0,13.994-6.266,13.994-13.994V76.44
				C166.764,68.711,160.498,62.446,152.77,62.446z"/>
			<g transform="scale(-1,1)">
				<path id="android-logo-c_1_" fill="#A4C639" stroke="#FFFFFF" stroke-width="7.2" d="M103.207,119.006L103.207,119.006
					c-7.729,0-13.994,6.265-13.994,13.994v49.562c0,7.729,6.266,13.994,13.994,13.994l0,0c7.729,0,13.994-6.266,13.994-13.994V133
					C117.201,125.271,110.936,119.006,103.207,119.006z"/>
			</g>
		</g>
		<g id="android-logo-a_1_">
			<path fill="#A4C639" stroke="#FFFFFF" stroke-width="7.2" d="M118.147,0.476L118.147,0.476c1.831,1.015,2.492,3.321,1.478,5.152
				L98.989,42.857c-1.016,1.831-3.322,2.492-5.152,1.478l0,0c-1.831-1.015-2.492-3.322-1.478-5.152l20.636-37.229
				C114.01,0.123,116.316-0.539,118.147,0.476z"/>
			<path id="android-logo-c_2_" fill="#A4C639" stroke="#FFFFFF" stroke-width="7.2" d="M13.994,62.446L13.994,62.446
				c7.729,0,13.994,6.266,13.994,13.994v49.562c0,7.729-6.266,13.994-13.994,13.994l0,0C6.266,139.996,0,133.73,0,126.002V76.44
				C0,68.711,6.266,62.446,13.994,62.446z"/>
			<g>
				<path id="android-logo-c_3_" fill="#A4C639" stroke="#FFFFFF" stroke-width="7.2" d="M63.557,119.006L63.557,119.006
					c7.729,0,13.994,6.265,13.994,13.994v49.562c0,7.729-6.266,13.994-13.994,13.994l0,0c-7.729,0-13.994-6.266-13.994-13.994V133
					C49.562,125.271,55.828,119.006,63.557,119.006z"/>
			</g>
		</g>
		<g id="android-logo-b_1_">
			<ellipse fill="#A4C639" cx="83.382" cy="62.446" rx="53.062" ry="48.98"/>
			<path fill="#A4C639" d="M43.148,50.201h80.467c7.085,0,12.828,5.743,12.828,12.828v80.466c0,7.085-5.743,12.828-12.828,12.828
				H43.148c-7.085,0-12.828-5.743-12.828-12.828V63.029C30.32,55.944,36.063,50.201,43.148,50.201z"/>
		</g>
	</g>
	<g>
		<path fill="#FFFFFF" stroke="#FFFFFF" stroke-width="7.2" d="M27.988,64.487h110.787"/>
		<circle fill="#FFFFFF" stroke="#FFFFFF" stroke-width="7.2" cx="58.892" cy="38.539" r="2.332"/>
		<circle fill="#FFFFFF" stroke="#FFFFFF" stroke-width="7.2" cx="107.872" cy="38.539" r="2.332"/>
	</g>
</g>
</svg>
