<?xml version="1.0" encoding="utf-8"?>
<!-- Generator: Adobe Illustrator 16.0.3, SVG Export Plug-In . SVG Version: 6.00 Build 0)  -->
<!DOCTYPE svg PUBLIC "-//W3C//DTD SVG 1.1//EN" "http://www.w3.org/Graphics/SVG/1.1/DTD/svg11.dtd">
<svg version="1.1" id="Layer_1" xmlns="http://www.w3.org/2000/svg" xmlns:xlink="http://www.w3.org/1999/xlink" x="0px" y="0px"
	 width="612px" height="792px" viewBox="0 0 612 792" enable-background="new 0 0 612 792" xml:space="preserve">
<path fill="#010101" d="M47.301,45.79c5.812,0,12.823,1.2,21.037,3.602c8.289,2.403,13.79,3.604,16.502,3.604
	c3.486,0,9.182-1.355,17.085-4.068c7.902-2.71,14.76-4.068,20.569-4.068c9.531,0,18.016,2.557,25.453,7.671
	c4.184,2.944,8.329,6.934,12.435,11.97c-6.198,5.27-10.73,9.957-13.597,14.062c-5.191,7.438-7.786,15.651-7.786,24.638
	c0,9.84,2.75,18.711,8.251,26.615c5.501,7.902,11.776,12.899,18.83,14.992c-2.947,9.53-7.828,19.494-14.646,29.874
	c-10.305,15.57-20.532,23.355-30.682,23.355c-4.029,0-9.607-1.272-16.735-3.835c-7.051-2.562-13.017-3.834-17.897-3.834
	c-4.883,0-10.577,1.322-17.084,3.949c-6.432,2.711-11.661,4.066-15.691,4.066c-12.163,0-24.096-10.297-35.795-30.908
	C5.85,147.094,0,127.104,0,107.502C0,89.294,4.455,74.458,13.365,62.99C22.353,51.522,33.665,45.79,47.301,45.79 M120.52,0
	c0.309,1.007,0.504,1.898,0.581,2.673c0.076,0.775,0.116,1.55,0.116,2.325c0,4.959-1.162,10.382-3.486,16.271
	c-2.325,5.888-6.005,11.351-11.041,16.387c-4.339,4.261-8.64,7.127-12.901,8.6c-2.71,0.853-6.817,1.511-12.318,1.975
	c0.155-11.777,3.215-21.965,9.182-30.565C96.694,9.065,106.649,3.177,120.52,0"/>
</svg>
