<?xml version="1.0" encoding="utf-8"?>
<!-- Generator: Adobe Illustrator 16.0.3, SVG Export Plug-In . SVG Version: 6.00 Build 0)  -->
<!DOCTYPE svg PUBLIC "-//W3C//DTD SVG 1.1//EN" "http://www.w3.org/Graphics/SVG/1.1/DTD/svg11.dtd">
<svg version="1.1" id="Layer_1" xmlns="http://www.w3.org/2000/svg" xmlns:xlink="http://www.w3.org/1999/xlink" x="0px" y="0px"
	 width="612px" height="792px" viewBox="0 0 612 792" enable-background="new 0 0 612 792" xml:space="preserve">
<g>
	<circle fill="#FFFFFF" cx="87.485" cy="87.638" r="85.938"/>
	<path fill="#010101" fill-opacity="0.1" d="M142.172,103.263c0-30.203-24.484-54.688-54.688-54.688S32.797,73.06,32.797,103.263
		h15.625c0-21.574,17.489-39.062,39.062-39.062s39.062,17.488,39.062,39.062"/>
	<circle fill="#010101" fill-opacity="0.1" cx="91.391" cy="98.576" r="29.688"/>
	
		<linearGradient id="SVGID_1_" gradientUnits="userSpaceOnUse" x1="200.4595" y1="492.0811" x2="200.4595" y2="491.0811" gradientTransform="matrix(64.0625 0 0 -64.0625 -12754.4375 31579.5625)">
		<stop  offset="0" style="stop-color:#83B5E0"/>
		<stop  offset="1" style="stop-color:#0A5A95"/>
	</linearGradient>
	<circle fill="url(#SVGID_1_)" cx="87.485" cy="87.638" r="32.031"/>
	
		<linearGradient id="SVGID_2_" gradientUnits="userSpaceOnUse" x1="-198.3398" y1="118.0825" x2="-198.3398" y2="27.0825" gradientTransform="matrix(0.7812 0 0 -0.7812 245.1719 92.3906)">
		<stop  offset="0" style="stop-color:#EF6B5A"/>
		<stop  offset="1" style="stop-color:#DF2628"/>
	</linearGradient>
	<path fill="url(#SVGID_2_)" d="M165.61,48.576C144.102,5.3,91.585-12.344,48.31,9.164c-13.493,6.707-25.026,16.783-33.481,29.256
		l35.156,60.938c-6.475-20.579,4.96-42.51,25.539-48.984c3.62-1.139,7.386-1.744,11.18-1.797"/>
	
		<linearGradient id="SVGID_3_" gradientUnits="userSpaceOnUse" x1="-286.5703" y1="-73.5283" x2="-240.5699" y2="2.4723" gradientTransform="matrix(0.7812 0 0 -0.7812 245.1719 92.3906)">
		<stop  offset="0" style="stop-color:#398C42"/>
		<stop  offset="1" style="stop-color:#4DB749"/>
	</linearGradient>
	<path fill="url(#SVGID_3_)" d="M14.829,38.419C-12.08,78.56-1.354,132.914,38.787,159.822c12.419,8.325,26.764,13.33,41.667,14.535
		l36.719-62.5c-13.729,16.641-38.35,19.002-54.99,5.273c-5.652-4.664-9.879-10.822-12.197-17.773"/>
	
		<linearGradient id="SVGID_4_" gradientUnits="userSpaceOnUse" x1="-132.4712" y1="-81.6113" x2="-181.4714" y2="36.389" gradientTransform="matrix(0.7812 0 0 -0.7812 245.1719 92.3906)">
		<stop  offset="0" style="stop-color:#E4B024"/>
		<stop  offset="0.3" style="stop-color:#FCD20D"/>
	</linearGradient>
	<path fill="url(#SVGID_4_)" d="M80.454,174.357c48.188,3.643,90.204-32.467,93.848-80.654c1.175-15.549-1.825-31.128-8.691-45.127
		H86.704c21.573,0.1,38.981,17.668,38.883,39.242c-0.04,8.728-3.002,17.191-8.414,24.039"/>
	
		<linearGradient id="SVGID_5_" gradientUnits="userSpaceOnUse" x1="-271.3394" y1="-5.917" x2="-271.3394" y2="74.083" gradientTransform="matrix(0.7812 0 0 -0.7812 245.1719 92.3906)">
		<stop  offset="0" style="stop-color:#010101;stop-opacity:0.15"/>
		<stop  offset="0.3" style="stop-color:#010101;stop-opacity:0.06"/>
		<stop  offset="1" style="stop-color:#010101;stop-opacity:0.03"/>
	</linearGradient>
	<path fill="url(#SVGID_5_)" d="M14.829,38.419l35.156,60.938c-2.604-8.764-2.051-18.164,1.562-26.562L16.391,36.076"/>
	
		<linearGradient id="SVGID_6_" gradientUnits="userSpaceOnUse" x1="-160.9165" y1="-31.75" x2="-215.9165" y2="-87.75" gradientTransform="matrix(0.7812 0 0 -0.7812 245.1719 92.3906)">
		<stop  offset="0" style="stop-color:#010101;stop-opacity:0.15"/>
		<stop  offset="0.3" style="stop-color:#010101;stop-opacity:0.06"/>
		<stop  offset="1" style="stop-color:#010101;stop-opacity:0.03"/>
	</linearGradient>
	<path fill="url(#SVGID_6_)" d="M80.454,174.357l36.719-62.5c-5.793,6.909-13.798,11.602-22.656,13.281l-15.625,49.219"/>
	
		<linearGradient id="SVGID_7_" gradientUnits="userSpaceOnUse" x1="-161.7139" y1="-47.8657" x2="-153.7139" y2="31.1343" gradientTransform="matrix(0.7812 0 0 -0.7812 245.1719 92.3906)">
		<stop  offset="0" style="stop-color:#010101;stop-opacity:0.15"/>
		<stop  offset="0.3" style="stop-color:#010101;stop-opacity:0.06"/>
		<stop  offset="1" style="stop-color:#010101;stop-opacity:0.03"/>
	</linearGradient>
	<path fill="url(#SVGID_7_)" d="M165.61,48.576H86.704c11.886,0.055,23.1,5.518,30.469,14.844l50-12.5"/>
</g>
</svg>
