<?xml version="1.0" encoding="utf-8"?>
<!-- Generator: Adobe Illustrator 16.0.3, SVG Export Plug-In . SVG Version: 6.00 Build 0)  -->
<!DOCTYPE svg PUBLIC "-//W3C//DTD SVG 1.1//EN" "http://www.w3.org/Graphics/SVG/1.1/DTD/svg11.dtd">
<svg version="1.1" id="Layer_1" xmlns="http://www.w3.org/2000/svg" xmlns:xlink="http://www.w3.org/1999/xlink" x="0px" y="0px"
	 width="612px" height="792px" viewBox="0 0 612 792" enable-background="new 0 0 612 792" xml:space="preserve">
<g transform="translate(15.74869,-265.30153)">
	<g transform="matrix(0.38462212,0,0,0.38462212,-30.92626,239.595)">
		<g>
			
				<radialGradient id="SVGID_1_" cx="383.6174" cy="1748.7681" r="175.4256" gradientTransform="matrix(0.611 0.348 0.2879 -0.5056 -509.9132 1005.8797)" gradientUnits="userSpaceOnUse">
				<stop  offset="0.4" style="stop-color:#42C4EF"/>
				<stop  offset="1" style="stop-color:#2072B8"/>
			</radialGradient>
			<path fill="url(#SVGID_1_)" d="M313.94,441.769c-36.955,0-69.082-20.647-85.494-51.022
				c-7.409-13.713-11.621-29.415-11.621-46.096v-0.447h0.01h194.21h118.506c0.929-8.234,1.452-16.585,1.452-25.065
				c0-122.106-98.984-221.088-221.088-221.088c-122.106,0-221.09,98.981-221.09,221.088c0,122.104,98.984,221.088,221.09,221.088
				c97.031,0,179.402-62.536,209.164-149.48H399.432C383.019,421.122,350.891,441.769,313.94,441.769L313.94,441.769z
				 M309.916,198.3c49.61,0,90.14,38.809,92.923,87.721H216.99C219.773,237.109,260.306,198.3,309.916,198.3L309.916,198.3z"/>
			<g opacity="0.5">
				<path fill="none" stroke="#FFFFFF" stroke-width="1.5" d="M314.699,444.049c-36.95,0-69.077-20.642-85.494-51.019
					c-7.406-13.716-11.621-29.415-11.621-46.096v-0.447h0.01h194.207H530.31c0.927-8.234,1.452-16.585,1.452-25.065
					c0-122.106-98.984-221.088-221.09-221.088c-122.104,0-221.085,98.981-221.085,221.088c0,122.104,98.986,221.09,221.09,221.09
					c97.031,0,179.402-62.536,209.164-149.482H400.193c-16.412,30.377-48.541,51.019-85.491,51.019H314.699z M310.678,200.582
					c49.607,0,90.14,38.811,92.923,87.721H217.752C220.537,239.394,261.065,200.582,310.678,200.582z"/>
			</g>
			<path fill="none" stroke="#1360A9" stroke-width="1.5" d="M313.94,441.769c-36.955,0-69.082-20.647-85.494-51.022
				c-7.409-13.713-11.621-29.415-11.621-46.096v-0.447h0.01h194.21h118.506c0.929-8.234,1.452-16.585,1.452-25.065
				c0-122.106-98.984-221.088-221.088-221.088c-122.106,0-221.09,98.981-221.09,221.088c0,122.104,98.984,221.088,221.09,221.088
				c97.031,0,179.402-62.536,209.164-149.48H399.432C383.019,421.122,350.891,441.769,313.94,441.769L313.94,441.769z
				 M309.916,198.3c49.61,0,90.14,38.809,92.923,87.721H216.99C219.773,237.109,260.306,198.3,309.916,198.3L309.916,198.3z"/>
		</g>
		<path fill="#FFCD0E" d="M195.81,510.754c-48.83,22.26-88.82,26.109-108.749,6.177c-40.782-40.784,17.722-165.409,130.676-278.363
			C330.69,125.618,455.321,67.111,496.1,107.893c17.405,17.408,16.671,50.12,1.389,90.645c2.237,3.466,4.382,6.99,6.429,10.585
			c20.531-53.538,20.299-99.073-6.695-126.065c-41.848-41.848-200.707-2.935-322.681,119.044
			C52.561,324.085,14.095,483.383,55.491,524.785c31.542,31.542,88.807,26.121,154.54-6.21
			C205.184,516.137,200.446,513.522,195.81,510.754L195.81,510.754z"/>
		
			<radialGradient id="SVGID_2_" cx="459.6648" cy="1623.5413" r="89.1734" gradientTransform="matrix(0.4933 0.5011 1.325 -1.3043 -2091.7458 2205.427)" gradientUnits="userSpaceOnUse">
			<stop  offset="0.5" style="stop-color:#F1EC80;stop-opacity:0"/>
			<stop  offset="0.7" style="stop-color:#FFCD0E"/>
			<stop  offset="0.8" style="stop-color:#F1EC80;stop-opacity:0.9"/>
			<stop  offset="1" style="stop-color:#FFCD0E;stop-opacity:0"/>
		</radialGradient>
		<path fill="url(#SVGID_2_)" d="M195.81,510.754c-48.83,22.26-88.82,26.109-108.749,6.177
			c-40.782-40.784,17.722-165.409,130.676-278.363C330.69,125.618,455.321,67.111,496.1,107.893
			c17.405,17.408,16.671,50.12,1.389,90.645c2.237,3.466,4.382,6.99,6.429,10.585c20.531-53.538,20.299-99.073-6.695-126.065
			c-41.848-41.848-200.707-2.935-322.681,119.044C52.561,324.085,14.095,483.383,55.491,524.785
			c31.542,31.542,88.807,26.121,154.54-6.21C205.184,516.137,200.446,513.522,195.81,510.754L195.81,510.754z"/>
	</g>
</g>
</svg>
